<?xml version="1.0" encoding="UTF-8"?>
<svg width="28px" height="28px" viewBox="0 0 28 28" version="1.1" xmlns="http://www.w3.org/2000/svg" xmlns:xlink="http://www.w3.org/1999/xlink">
    <title>search</title>
    <g id="Documentation" stroke="none" stroke-width="1" fill="none" fill-rule="evenodd">
        <g id="Light-Theme" transform="translate(-341.000000, -24.000000)" fill="#97A6BA" fill-rule="nonzero">
            <g id="Navbar" transform="translate(-1.000000, -0.677554)">
                <g id="Search-Box" transform="translate(342.000000, 23.677554)">
                    <g id="search" transform="translate(0.000000, 1.000000)">
                        <path d="M11.2691354,22.5298732 C13.7718206,22.5299338 16.2029157,21.6948103 18.17735,20.1567218 L25.626253,27.6067545 C26.1827153,28.1442481 27.0694028,28.1288357 27.6068149,27.5722889 C28.1310617,27.0293949 28.1310617,26.1687255 27.6068149,25.6258921 L20.157912,18.1758594 C23.9739747,13.2628111 23.0853458,6.18601426 18.1730425,2.36937279 C13.2607392,-1.44726868 6.18507618,-0.558504989 2.36901348,4.35454334 C-1.44704921,9.26759167 -0.558420294,16.3443885 4.35388299,20.16103 C6.33153281,21.6976015 8.76481198,22.5311474 11.2691354,22.5298732 Z M5.01438871,5.00332262 C8.38869442,1.62639509 13.8595238,1.62633311 17.2338914,5.00319867 C20.6082591,8.38006422 20.608321,13.855044 17.2340153,17.2319715 C13.8597096,20.608899 8.38888021,20.608961 5.01451258,17.2320955 C5.01445065,17.2320335 5.01445065,17.2320335 5.01438871,17.2319715 C1.64008301,13.8797116 1.62020282,8.42468913 4.9699215,5.04782357 C4.98472326,5.0329486 4.99952502,5.01813561 5.01438871,5.00332262 Z" id="Shape"></path>
                    </g>
                </g>
            </g>
        </g>
    </g>
</svg>