<svg
  xmlns="http://www.w3.org/2000/svg"
  width="750"
  height="750"
  viewBox="0 -50 500 400"
>
  <path
    d="M424.7 248.62a9.58 9.58 0 119.46-9.57 9.24 9.24 0 01-9.46 9.57m0-21.17a11.6 11.6 0 1011.69 11.6 11.49 11.49 0 00-11.69-11.6m.24 11h-2.17v-3.29h2.28a1.59 1.59 0 011.7 1.68 1.63 1.63 0 01-1.81 1.61m2 1.1a3.28 3.28 0 001.89-2.83c0-1.9-1.33-3.1-3.39-3.1h-4.88v10.78h2.18V240h2l2.58 4.43h2.35l-2.87-4.82zm-183-52.1c0 .83-1.66.83-1.66.83q-25 1.25-42.48 20s-1.66.83-4.16-1.67a3.7 3.7 0 01-1.67-4.16c4.17-10.83 15.83-18.32 34.15-21.65h.88c3.33-.84 12.49-1.67 15 4.16 0 .83.83 1.66 0 2.5m51.63 55.8c6.67-9.17 15-20.82 18.33-23.32h.83c9.16-.84 15-4.17 15.82-5l7.5-7.5c.83-.83 3.33-7.49 5-10l.84-.83.83-2.5c0-.83 0-1.67-.83-1.67h-1.67c0-.83.83-1.66.83-2.49a2.9 2.9 0 00-.83-1.67h-2.5l-.83-.83s-.83-.84-3.33.83c-.83.83-1.67.83-2.5 1.67v-.84c0-.83-.83-.83-1.67-1.66a6.32 6.32 0 00-3.33.83c-.83.83-2.49 3.33-3.33 4.16l-3.33 3.34a22.05 22.05 0 01-5.83.83 18.27 18.27 0 004.17-3.33c1.66-2.5 2.49-4.17 2.49-6.67v-.83a1.79 1.79 0 00-1.66-1.66c-1.67-.84-4.17.83-4.17 1.66l-.83.83a6.34 6.34 0 00-3.33 1.67 3.07 3.07 0 01-2.5.83 6.34 6.34 0 00-3.33 1.67l-2.5 1.66c-3.33 1.67-4.16 3.34-5.83 5-3.33 3.33-7.49 7.5-25.81 13.33 0-6.67-4.17-25-5-31.65-1.67-12.49-15.82-29.15-25.82-40 10 5.82 15 6.66 20-.84 1.67-2.5 3.33 0 5.83 0 3.33-1.66 2.5-2.5 2.5-4.16.83-2.5 3.33-.83 5-1.67 4.17-.83 1.67-5 3.34-7.49 19.15-.84-2.5-18.32 10-25.82C296.48 95 299.81 90 303.14 85c3.33-4.16 3.33-.83 5.83-4.16 4.16-15-3.33-33.31-12.49-45.81-46.64-60-100.77-32.47-116.59 5-6.67 9.16-4.17 23.32-5 35-.83 4.16-3.33 4.16-6.66 1.66-.84 7.5 5 9.17 8.32 10 0 .83 1.67 2.5 2.5 3.33-2.5.83-7.49-.83-9.16-1.67 0 1.67 0 3.34 1.67 5 .83 5.83 4.16 7.5 8.33 9.16 7.49 3.33 4.16 13.33 3.33 17.49 0 .83-.84 1.67-.84 2.5-6.66 1.66-11.66 8.33-13.32 15-.83 15.82-9.16 29.15-9.16 45.8v3.33c4.16 17.49-.83 40.81 0 59.13A432 432 0 000 299c69.12-27.48 149.07-43.3 234.85-43.3S401.41 271.53 469.7 299c-50-28.31-109.1-48.3-174.06-55.79"
  />
</svg>
