<svg height="26" viewBox="0 0 45 26" width="45" xmlns="http://www.w3.org/2000/svg"><g fill="none" fill-rule="evenodd" transform="translate(0 -1)"><path d="m18.2276 17.2964h-14.739c-1.919 0-3.489-1.569-3.489-3.488s1.57-3.488 3.489-3.488h14.739c1.918 0 3.488 1.569 3.488 3.488s-1.57 3.488-3.488 3.488" fill="#23afe5"/><path d="m29.9326 7.9765h-20.93c-1.918 0-3.488-1.57-3.488-3.488 0-1.919 1.57-3.489 3.488-3.489h20.93c1.918 0 3.488 1.57 3.488 3.489 0 1.918-1.57 3.488-3.488 3.488" fill="#23afe5"/><path d="m41.5117 17.2964h-14.813c-1.918 0-3.488-1.569-3.488-3.488s1.57-3.488 3.488-3.488h14.813c1.918 0 3.488 1.569 3.488 3.488s-1.57 3.488-3.488 3.488" fill="#1774db"/><path d="m36.4302 26.6167h-20.93c-1.918 0-3.488-1.57-3.488-3.488 0-1.919 1.57-3.489 3.488-3.489h20.93c1.918 0 3.488 1.57 3.488 3.489 0 1.918-1.57 3.488-3.488 3.488" fill="#23afe5"/></g></svg>