<svg width="96" height="96" viewBox="0 0 96 96" fill="none" xmlns="http://www.w3.org/2000/svg">
<g clip-path="url(#clip0_2323_86285)">
<path d="M0 12.5217C0 5.60618 4.27992 0 9.55948 0H86.4405C91.7201 0 96 5.60617 96 12.5217V83.4783C96 90.3938 91.7201 96 86.4405 96H9.55947C4.27991 96 0 90.3938 0 83.4783V12.5217Z" fill="#17818F"/>
<path opacity="0.6" d="M27.3467 27.7441H31.6511V42.1209H27.3467V27.7441Z" fill="white"/>
<path d="M36.2783 27.7441H40.5827V42.1209H36.2783V27.7441Z" fill="white"/>
<path opacity="0.6" d="M45.209 27.7441H49.5134V42.1209H45.209V27.7441Z" fill="white"/>
<path d="M54.1377 27.7441H58.4421V42.1209H54.1377V27.7441Z" fill="white"/>
<path opacity="0.6" d="M63.0674 27.7441H67.3718V42.1209H63.0674V27.7441Z" fill="white"/>
<path d="M26.2324 47.7661C24.9995 47.7661 24 48.7656 24 49.9985C24 51.2315 24.9995 52.231 26.2324 52.231H27.3486V61.2499C27.3486 62.1006 28.252 62.7903 29.3663 62.7903C30.4807 62.7903 31.384 62.1006 31.384 61.2499V53.231C31.384 52.6787 31.8317 52.231 32.384 52.231H36.3945C36.9468 52.231 37.3945 52.6787 37.3945 53.231V61.542C37.3945 62.3928 38.2979 63.0824 39.4122 63.0824C40.5266 63.0824 41.4299 62.3928 41.4299 61.542V53.231C41.4299 52.6787 41.8776 52.231 42.4299 52.231H42.9756C43.8294 52.231 45.133 52.3295 46.6437 52.5997C47.1092 52.6829 47.4404 53.0933 47.4404 53.5662V62.3661C47.4404 63.2168 48.3438 63.9065 49.4581 63.9065C50.5724 63.9065 51.4758 63.2168 51.4758 62.3661V55.4496C51.4758 54.7406 52.1934 54.2581 52.8281 54.5741C53.9858 55.1504 55.0667 55.8472 55.9929 56.6808C56.4113 57.0574 56.8051 57.4238 57.1796 57.7805C57.3762 57.9677 57.4863 58.2278 57.4863 58.4993V68.9936C57.4863 69.8444 58.3896 70.534 59.504 70.534C60.6183 70.534 61.5217 69.8444 61.5217 68.9936V62.676C61.5217 62.4199 61.8257 62.2829 62.022 62.4474V62.4474C63.4419 63.6379 64.938 64.5438 66.8447 65.0559C67.3054 65.1796 67.6438 65.5856 67.6438 66.0626V75.0796C67.6438 75.9304 68.5471 76.62 69.6615 76.62C70.7758 76.62 71.6792 75.9304 71.6792 75.0796V62.5781C71.6792 61.7956 70.9149 61.1494 69.9251 61.0508C69.8552 61.0386 69.7842 61.0296 69.712 61.024C67.569 60.8581 66.2859 60.1959 64.8906 59.0261C64.1348 58.3924 63.3657 57.6244 62.3933 56.649L62.3559 56.6114C61.4109 55.6634 60.3138 54.5628 58.9797 53.3621C56.3999 51.0403 53.1588 49.6589 50.2734 48.853C47.3785 48.0444 44.6649 47.7661 42.9756 47.7661H26.2324Z" fill="white"/>
<path fill-rule="evenodd" clip-rule="evenodd" d="M69.7657 30.4648H69.2065H26.7916H26.2324C24.9995 30.4648 24 29.4654 24 28.2324C24 26.9995 24.9995 26 26.2324 26H26.7916H69.2065H69.7657C70.9986 26 71.9981 26.9995 71.9981 28.2324C71.9981 29.4654 70.9986 30.4648 69.7657 30.4648ZM26.2324 39.9526C24.9995 39.9526 24 40.9521 24 42.1851C24 43.418 24.9995 44.4175 26.2324 44.4175H26.7916H69.2065H69.7657C70.9986 44.4175 71.9981 43.418 71.9981 42.1851C71.9981 40.9521 70.9986 39.9526 69.7657 39.9526H69.2065H26.7916H26.2324Z" fill="white"/>
</g>
<defs>
<clipPath id="clip0_2323_86285">
<rect width="96" height="96" rx="48" fill="white"/>
</clipPath>
</defs>
</svg>
