<svg width="96" height="96" viewBox="0 0 96 96" fill="none" xmlns="http://www.w3.org/2000/svg">
<rect width="96" height="96" rx="48" fill="#89306D"/>
<path d="M43.2527 45.8327L44.27 46.0924L44.0002 47.1494C43.851 47.7334 44.3373 48.3614 45.0868 48.5528L48.478 49.4187C49.2274 49.61 49.9552 49.292 50.1043 48.708L50.3742 47.651L51.3916 47.9108C52.8896 48.2933 54.3462 47.6568 54.6443 46.4895L58.4227 31.6916C58.7208 30.5242 57.7476 29.2674 56.2496 28.8848L56.5194 27.8279C56.6686 27.2439 56.1823 26.6159 55.4329 26.4245L50.0069 25.0391C49.2575 24.8477 48.5297 25.1657 48.3806 25.7497L48.1107 26.8067C46.6126 26.4242 45.156 27.0607 44.8579 28.228L41.0795 43.0259C40.7814 44.1933 41.7546 45.4501 43.2527 45.8327Z" fill="white"/>
<path d="M64.25 63V63C64.2111 63 64.1905 62.9539 64.2163 62.9248C66.5618 60.2771 68 56.8076 68 53C68 45.576 62.5805 39.3955 55.4894 38.2065C54.1277 37.9782 53 39.1193 53 40.5V40.5C53 41.8807 54.1368 42.968 55.4745 43.3098C59.7957 44.4138 63 48.3397 63 53C63 58.5141 58.5141 63 53 63H31.75C29.6789 63 28 64.6789 28 66.75C28 67.4406 28.5594 68 29.25 68H66.75C67.4406 68 68 67.4406 68 66.75C68 64.6789 66.3211 63 64.25 63Z" fill="white"/>
<rect x="34" y="56" width="20" height="4" rx="2" fill="white" fill-opacity="0.6"/>
</svg>
