<svg width="96" height="96" viewBox="0 0 96 96" fill="none" xmlns="http://www.w3.org/2000/svg">
<rect width="96" height="96" rx="48" fill="#E08700"/>
<path fill-rule="evenodd" clip-rule="evenodd" d="M24.8043 30C26.3531 30 27.6087 31.2555 27.6087 32.8043V60.2869H70.7956C72.3444 60.2869 73.6 61.5425 73.6 63.0913C73.6 64.6401 72.3444 65.8956 70.7956 65.8956H27.0478C24.26 65.8956 22 63.6356 22 60.8478V32.8043C22 31.2555 23.2555 30 24.8043 30Z" fill="white"/>
<path opacity="0.6" d="M31.5352 47.9479C31.5352 46.3991 32.7907 45.1436 34.3395 45.1436V45.1436C35.8883 45.1436 37.1438 46.3991 37.1438 47.9479V53.5566C37.1438 55.1054 35.8883 56.3609 34.3395 56.3609V56.3609C32.7907 56.3609 31.5352 55.1054 31.5352 53.5566V47.9479Z" fill="white"/>
<path d="M41.6309 38.974C41.6309 37.4252 42.8864 36.1697 44.4352 36.1697V36.1697C45.984 36.1697 47.2396 37.4252 47.2396 38.974V53.5566C47.2396 55.1054 45.984 56.361 44.4352 56.361V56.361C42.8864 56.361 41.6309 55.1054 41.6309 53.5566V38.974Z" fill="white"/>
<path opacity="0.6" d="M51.7266 45.7042C51.7266 44.1555 52.9821 42.8999 54.5309 42.8999V42.8999C56.0797 42.8999 57.3353 44.1555 57.3353 45.7042V53.5564C57.3353 55.1052 56.0797 56.3608 54.5309 56.3608V56.3608C52.9821 56.3608 51.7266 55.1052 51.7266 53.5564V45.7042Z" fill="white"/>
<path d="M61.8213 34.4867C61.8213 32.9379 63.0768 31.6824 64.6256 31.6824V31.6824C66.1744 31.6824 67.43 32.9379 67.43 34.4867V53.5563C67.43 55.1051 66.1744 56.3606 64.6256 56.3606V56.3606C63.0768 56.3606 61.8213 55.1051 61.8213 53.5563V34.4867Z" fill="white"/>
</svg>
