<svg width="96" height="96" viewBox="0 0 96 96" fill="none" xmlns="http://www.w3.org/2000/svg">
<rect width="96" height="96" rx="48" fill="#002044"/>
<path fill-rule="evenodd" clip-rule="evenodd" d="M51.3589 28.0029C61.0211 28.6565 68.7421 36.2292 69.4086 45.7057C69.4595 46.4291 68.8383 47.0384 68.0991 47.0384H50.0001V29.288C50.0001 28.5629 50.6213 27.9529 51.3589 28.0029ZM46.1178 32.0224V50.8461L58.724 63.2109C59.2781 63.7543 59.236 64.6769 58.5971 65.1211C55.5001 67.2757 51.7334 68.5639 47.6569 68.6139C37.2879 68.7416 28.3641 60.4059 28.0115 50.2408C27.6686 40.3431 35.0361 32.0843 44.6748 30.7484C45.4392 30.6421 46.1178 31.2648 46.1178 32.0224Z" fill="#FBFDFF"/>
<path opacity="0.4" d="M70.6886 50.8461H51.4961L64.2779 63.3822C64.7664 63.8614 65.5704 63.9002 66.0727 63.4362C69.2028 60.5439 71.3559 56.6449 71.9876 52.2621C72.096 51.5116 71.461 50.8461 70.6886 50.8461Z" fill="#FBFDFF"/>
</svg>
