<svg width="96" height="97" viewBox="0 0 96 97" fill="none" xmlns="http://www.w3.org/2000/svg">
<path d="M96 48.5C96 75.0097 74.5097 96.5 48 96.5C21.4903 96.5 0 75.0097 0 48.5C0 21.9903 21.4903 0.5 48 0.5C74.5097 0.5 96 21.9903 96 48.5Z" fill="#136F9A"/>
<path fill-rule="evenodd" clip-rule="evenodd" d="M41.6777 52.2L41.6777 62.5L38.6777 62.5L38.6777 52.2L41.6777 52.2Z" fill="#5CB5E1"/>
<path fill-rule="evenodd" clip-rule="evenodd" d="M29.6777 42.2L29.6777 62.5L26.6777 62.5L26.6777 42.2L29.6777 42.2Z" fill="#5CB5E1"/>
<path d="M46.2002 48.5C46.2002 51.8137 43.5139 54.5 40.2002 54.5C36.8865 54.5 34.2002 51.8137 34.2002 48.5C34.2002 45.1863 36.8865 42.5 40.2002 42.5C43.5139 42.5 46.2002 45.1863 46.2002 48.5Z" fill="white"/>
<path fill-rule="evenodd" clip-rule="evenodd" d="M40.2002 52.5C42.4093 52.5 44.2002 50.7091 44.2002 48.5C44.2002 46.2909 42.4093 44.5 40.2002 44.5C37.9911 44.5 36.2002 46.2909 36.2002 48.5C36.2002 50.7091 37.9911 52.5 40.2002 52.5ZM40.2002 54.5C43.5139 54.5 46.2002 51.8137 46.2002 48.5C46.2002 45.1863 43.5139 42.5 40.2002 42.5C36.8865 42.5 34.2002 45.1863 34.2002 48.5C34.2002 51.8137 36.8865 54.5 40.2002 54.5Z" fill="#136F9A"/>
<path fill-rule="evenodd" clip-rule="evenodd" d="M72.8779 48.5L72.8779 62.5L69.8779 62.5L69.8779 48.5L72.8779 48.5Z" fill="#5CB5E1"/>
<path d="M77.4004 44.5C77.4004 47.8137 74.7141 50.5 71.4004 50.5C68.0867 50.5 65.4004 47.8137 65.4004 44.5C65.4004 41.1863 68.0867 38.5 71.4004 38.5C74.7141 38.5 77.4004 41.1863 77.4004 44.5Z" fill="white"/>
<path fill-rule="evenodd" clip-rule="evenodd" d="M71.4004 48.5C73.6095 48.5 75.4004 46.7091 75.4004 44.5C75.4004 42.2909 73.6095 40.5 71.4004 40.5C69.1913 40.5 67.4004 42.2909 67.4004 44.5C67.4004 46.7091 69.1913 48.5 71.4004 48.5ZM71.4004 50.5C74.7141 50.5 77.4004 47.8137 77.4004 44.5C77.4004 41.1863 74.7141 38.5 71.4004 38.5C68.0867 38.5 65.4004 41.1863 65.4004 44.5C65.4004 47.8137 68.0867 50.5 71.4004 50.5Z" fill="#136F9A"/>
<path d="M34.2002 36.5C34.2002 39.8137 31.5139 42.5 28.2002 42.5C24.8865 42.5 22.2002 39.8137 22.2002 36.5C22.2002 33.1863 24.8865 30.5 28.2002 30.5C31.5139 30.5 34.2002 33.1863 34.2002 36.5Z" fill="white"/>
<path fill-rule="evenodd" clip-rule="evenodd" d="M28.2002 40.5C30.4093 40.5 32.2002 38.7091 32.2002 36.5C32.2002 34.2909 30.4093 32.5 28.2002 32.5C25.9911 32.5 24.2002 34.2909 24.2002 36.5C24.2002 38.7091 25.9911 40.5 28.2002 40.5ZM28.2002 42.5C31.5139 42.5 34.2002 39.8137 34.2002 36.5C34.2002 33.1863 31.5139 30.5 28.2002 30.5C24.8865 30.5 22.2002 33.1863 22.2002 36.5C22.2002 39.8137 24.8865 42.5 28.2002 42.5Z" fill="#136F9A"/>
<path d="M20 64.5C20 62.2909 21.7909 60.5 24 60.5H44V68.5H24C21.7909 68.5 20 66.7091 20 64.5V64.5Z" fill="#5CB5E1"/>
<path d="M66 60.5H74C76.2091 60.5 78 62.2909 78 64.5V64.5C78 66.7091 76.2091 68.5 74 68.5H66V60.5Z" fill="white"/>
<path d="M66 60.5H44V68.5H66V60.5Z" fill="#A1D9F4"/>
<path fill-rule="evenodd" clip-rule="evenodd" d="M57.4004 42.1934L57.4004 60.5L54.4004 60.5L54.4004 42.1934L57.4004 42.1934Z" fill="#5CB5E1"/>
<path d="M62 38.5C62 41.8137 59.3137 44.5 56 44.5C52.6863 44.5 50 41.8137 50 38.5C50 35.1863 52.6863 32.5 56 32.5C59.3137 32.5 62 35.1863 62 38.5Z" fill="white"/>
<path fill-rule="evenodd" clip-rule="evenodd" d="M65 38.5C65 43.4706 60.9706 47.5 56 47.5C51.0294 47.5 47 43.4706 47 38.5C47 33.5294 51.0294 29.5 56 29.5C60.9706 29.5 65 33.5294 65 38.5ZM56 44.5C59.3137 44.5 62 41.8137 62 38.5C62 35.1863 59.3137 32.5 56 32.5C52.6863 32.5 50 35.1863 50 38.5C50 41.8137 52.6863 44.5 56 44.5Z" fill="#5CB5E1"/>
<path d="M62 38.5C62 41.8137 59.3137 44.5 56 44.5C52.6863 44.5 50 41.8137 50 38.5C50 35.1863 52.6863 32.5 56 32.5C59.3137 32.5 62 35.1863 62 38.5Z" fill="white"/>
<path fill-rule="evenodd" clip-rule="evenodd" d="M56 42.5C58.2091 42.5 60 40.7091 60 38.5C60 36.2909 58.2091 34.5 56 34.5C53.7909 34.5 52 36.2909 52 38.5C52 40.7091 53.7909 42.5 56 42.5ZM56 44.5C59.3137 44.5 62 41.8137 62 38.5C62 35.1863 59.3137 32.5 56 32.5C52.6863 32.5 50 35.1863 50 38.5C50 41.8137 52.6863 44.5 56 44.5Z" fill="#136F9A"/>
</svg>
