<?xml version="1.0" encoding="UTF-8"?>
<svg width="720px" height="701px" viewBox="0 0 720 701" version="1.1" xmlns="http://www.w3.org/2000/svg" xmlns:xlink="http://www.w3.org/1999/xlink">
    <title>atomic-structure</title>
    <defs>
        <circle id="path-1" cx="357.5" cy="349.5" r="167.5"></circle>
        <filter x="-2.5%" y="-2.5%" width="105.1%" height="105.1%" filterUnits="objectBoundingBox" id="filter-2">
            <feMorphology radius="6" operator="erode" in="SourceAlpha" result="shadowSpreadInner1"></feMorphology>
            <feGaussianBlur stdDeviation="5.5" in="shadowSpreadInner1" result="shadowBlurInner1"></feGaussianBlur>
            <feOffset dx="0" dy="0" in="shadowBlurInner1" result="shadowOffsetInner1"></feOffset>
            <feComposite in="shadowOffsetInner1" in2="SourceAlpha" operator="arithmetic" k2="-1" k3="1" result="shadowInnerInner1"></feComposite>
            <feColorMatrix values="0 0 0 0 0.811764706   0 0 0 0 0.847058824   0 0 0 0 0.890196078  0 0 0 1 0" type="matrix" in="shadowInnerInner1"></feColorMatrix>
        </filter>
        <linearGradient x1="8.53799107%" y1="-31.0138129%" x2="93.4416459%" y2="141.335755%" id="linearGradient-3">
            <stop stop-color="#1874DC" offset="0%"></stop>
            <stop stop-color="#7531FF" offset="100%"></stop>
        </linearGradient>
        <circle id="path-4" cx="84.5" cy="84.5" r="84.5"></circle>
        <filter x="-21.9%" y="-20.7%" width="143.8%" height="143.8%" filterUnits="objectBoundingBox" id="filter-5">
            <feMorphology radius="4.5" operator="dilate" in="SourceAlpha" result="shadowSpreadOuter1"></feMorphology>
            <feOffset dx="0" dy="2" in="shadowSpreadOuter1" result="shadowOffsetOuter1"></feOffset>
            <feGaussianBlur stdDeviation="7.5" in="shadowOffsetOuter1" result="shadowBlurOuter1"></feGaussianBlur>
            <feColorMatrix values="0 0 0 0 0.811764706   0 0 0 0 0.847058824   0 0 0 0 0.890196078  0 0 0 1 0" type="matrix" in="shadowBlurOuter1"></feColorMatrix>
        </filter>
        <filter x="-74.7%" y="-74.7%" width="249.4%" height="249.4%" filterUnits="objectBoundingBox" id="filter-6">
            <feOffset dx="6" dy="8" in="SourceAlpha" result="shadowOffsetOuter1"></feOffset>
            <feGaussianBlur stdDeviation="12.5" in="shadowOffsetOuter1" result="shadowBlurOuter1"></feGaussianBlur>
            <feColorMatrix values="0 0 0 0 0.392156863   0 0 0 0 0.454901961   0 0 0 0 0.545098039  0 0 0 0.172831075 0" type="matrix" in="shadowBlurOuter1" result="shadowMatrixOuter1"></feColorMatrix>
            <feMerge>
                <feMergeNode in="shadowMatrixOuter1"></feMergeNode>
                <feMergeNode in="SourceGraphic"></feMergeNode>
            </feMerge>
        </filter>
        <filter x="-57.1%" y="-57.1%" width="214.1%" height="214.1%" filterUnits="objectBoundingBox" id="filter-7">
            <feOffset dx="0" dy="0" in="SourceAlpha" result="shadowOffsetOuter1"></feOffset>
            <feGaussianBlur stdDeviation="12.5" in="shadowOffsetOuter1" result="shadowBlurOuter1"></feGaussianBlur>
            <feColorMatrix values="0 0 0 0 0.392156863   0 0 0 0 0.454901961   0 0 0 0 0.545098039  0 0 0 0.172831075 0" type="matrix" in="shadowBlurOuter1" result="shadowMatrixOuter1"></feColorMatrix>
            <feMerge>
                <feMergeNode in="shadowMatrixOuter1"></feMergeNode>
                <feMergeNode in="SourceGraphic"></feMergeNode>
            </feMerge>
        </filter>
        <filter x="-74.7%" y="-74.7%" width="249.4%" height="249.4%" filterUnits="objectBoundingBox" id="filter-8">
            <feOffset dx="-5" dy="8" in="SourceAlpha" result="shadowOffsetOuter1"></feOffset>
            <feGaussianBlur stdDeviation="12.5" in="shadowOffsetOuter1" result="shadowBlurOuter1"></feGaussianBlur>
            <feColorMatrix values="0 0 0 0 0.392156863   0 0 0 0 0.454901961   0 0 0 0 0.545098039  0 0 0 0.172831075 0" type="matrix" in="shadowBlurOuter1" result="shadowMatrixOuter1"></feColorMatrix>
            <feMerge>
                <feMergeNode in="shadowMatrixOuter1"></feMergeNode>
                <feMergeNode in="SourceGraphic"></feMergeNode>
            </feMerge>
        </filter>
    </defs>
    <g id="Documentation" stroke="none" stroke-width="1" fill="none" fill-rule="evenodd">
        <g id="Desktop-HD" transform="translate(-720.000000, -220.000000)">
            <g id="atomic-structure" transform="translate(720.000000, 220.000000)">
                <g id="Group-7">
                    <path d="M350.5,0 C415.595984,0 476.547208,17.7458232 528.779886,48.6636818 C586.793717,79.4820934 653.576413,119.79444 720.000794,124.784554 L720.000901,579.423712 C624.546119,595.55291 526.61322,664.980134 459.530485,683.706414 C425.220318,694.930835 388.568924,701 350.5,701 C156.924195,701 0,544.075805 0,350.5 C0,156.924195 156.924195,0 350.5,0 Z" id="Combined-Shape" fill="#3961FD"></path>
                    <circle id="Oval" fill-opacity="0.0421765734" fill="#000000" cx="357.5" cy="349.5" r="317.5"></circle>
                    <circle id="Oval" fill-opacity="0.0421765734" fill="#000000" cx="358" cy="350" r="276"></circle>
                    <circle id="Oval" fill-opacity="0.0421765734" fill="#000000" cx="357.5" cy="349.5" r="229.5"></circle>
                </g>
                <g id="Oval">
                    <use fill="#FFFFFF" fill-rule="evenodd" xlink:href="#path-1"></use>
                    <use fill="black" fill-opacity="1" filter="url(#filter-2)" xlink:href="#path-1"></use>
                </g>
                <g id="Group-8" transform="translate(273.000000, 266.000000)">
                    <g id="Oval">
                        <use fill="black" fill-opacity="1" filter="url(#filter-5)" xlink:href="#path-4"></use>
                        <use fill="url(#linearGradient-3)" fill-rule="evenodd" xlink:href="#path-4"></use>
                    </g>
                    <g id="stjudecloud-logo" transform="translate(10.000000, 70.000000)" fill="#FFFFFF" fill-rule="nonzero">
                        <path d="M40.8109258,0 L40.8109258,29 L40.5505326,29 L40.5505326,0 L40.8109258,0 Z M13.3511889,6.66251212 C14.5050114,3.89886346 18.4598557,1.8414951 21.9239339,6.3034863 C22.6000426,7.23276807 23.1253973,8.58451009 22.8212789,9.68055249 C22.6529043,9.93036644 22.6059161,9.69297779 22.3814167,9.9970707 C22.1086238,10.365252 21.8775982,10.7458586 21.2660984,11.0316405 C20.883497,11.2485141 20.9179334,11.590432 20.9987073,11.9251697 L21.0216069,12.0161845 C21.1390641,12.4693747 21.2800208,12.8868616 20.5044972,12.9333657 C20.4672981,12.98359 20.4582921,13.0488229 20.4553298,13.1169514 L20.4535619,13.1855967 C20.4507739,13.3230231 20.4426293,13.4558823 20.2519353,13.4872725 C20.1259807,13.5075454 19.9563009,13.425146 19.8929973,13.5925606 C19.8929973,13.7488578 19.9210597,13.8090224 19.7050443,13.9215041 C19.5575534,13.9502785 19.3943998,13.7750163 19.2906341,13.9371992 C18.8984127,14.4727951 18.4996652,14.4145924 17.7870101,13.9999797 C18.5427378,14.7906213 19.5934472,16.040345 19.7194018,16.948046 C19.7814002,17.4627151 20.0894343,18.8066095 20.1011814,19.3062375 C21.4644932,18.8536949 21.7692642,18.5541797 22.0113842,18.3122133 C22.1347284,18.1912301 22.2489359,18.0774405 22.4656039,17.9643049 C22.5119396,17.9322607 22.6626935,17.8322043 22.6796615,17.820433 L22.6747669,17.8234412 L22.6796615,17.820433 L22.6796615,17.820433 L22.6767248,17.8218063 L22.6809668,17.819125 C22.7581928,17.7531837 22.8372317,17.7185782 22.91053,17.6926013 L22.9537596,17.677869 C23.0235894,17.6549803 23.0836299,17.6340534 23.1345339,17.5895839 C23.2063215,17.5261495 23.3146555,17.4934513 23.3662121,17.481026 C23.391664,17.4548675 23.4366944,17.4064742 23.4393049,17.4032044 C23.4706304,17.37443 23.6344366,17.2351359 23.7721383,17.303148 C23.8223896,17.3293066 23.8563256,17.3790078 23.8700305,17.4437501 C23.8745988,17.4666389 23.875904,17.4895276 23.875904,17.5137242 C23.875904,17.6530184 23.8002007,17.8250107 23.6644569,17.9885015 C23.6044164,18.0591296 23.4941245,18.1349893 23.3557702,18.2160807 C23.4151581,18.2389694 23.5567755,18.2428932 23.7858432,18.1689954 C23.8563256,18.0467043 23.9751014,17.9427241 24.0051217,17.9185275 C24.0390577,17.8622866 24.160444,17.6732912 24.2491996,17.6118187 C24.331429,17.5588477 24.4162689,17.5418446 24.4834882,17.5673492 C24.5311291,17.5850062 24.5663702,17.62359 24.5787699,17.6700214 C24.5787699,17.6700214 24.573549,17.7151449 24.5676755,17.7576525 C24.6127059,17.7020656 24.6681781,17.641901 24.7236504,17.6098568 C24.8652677,17.5235337 24.9416236,17.5516541 24.9553285,17.5614635 C24.9638125,17.5640794 24.9977485,17.5895839 25.0310318,17.6314376 C25.0943354,17.6177044 25.1556812,17.6157425 25.2020168,17.641901 C25.2476999,17.6674056 25.2770675,17.7099132 25.2835937,17.7622302 L25.2835937,17.7622302 L25.2835937,17.7746555 C25.2835937,17.8223949 25.2568365,17.891061 25.2320371,17.944032 C25.2320371,17.944032 25.2300793,17.9492637 25.228774,17.9538415 C25.271194,17.9492637 25.3090456,17.9492637 25.3410237,17.9662668 C25.3840963,17.9898094 25.4115061,18.032971 25.413464,18.0846341 L25.413464,18.0846341 L25.3599496,18.2494329 L25.3547286,18.2697057 L25.3214453,18.3455655 L25.3312345,18.3279084 C25.2496577,18.5208276 25.0486524,18.9753321 24.9820857,19.0459601 C24.9174769,19.1146262 24.5311291,19.4906551 24.3986483,19.5854798 C24.2955352,19.6600316 23.9033138,19.9046138 23.2024058,19.9458135 C23.1847852,19.9536611 23.1723855,19.9588928 23.1560702,19.9667403 C22.924392,20.1276153 22.2769983,21.0000023 21.8071158,21.6794701 L21.8071158,21.6794701 L21.8149472,21.6892795 C26.5927385,22.2608434 30.9841819,23.7309528 34.687117,25.8687586 C29.6065126,23.8211997 23.6788144,22.642104 17.3438848,22.642104 C11.0083026,22.642104 5.07995181,23.8211997 0,25.8687586 C3.42557388,23.8898658 7.44306917,22.4838449 11.8103659,21.8311895 C11.7470623,20.4794475 12.1294944,18.7601781 11.8299443,17.4489818 C11.8188499,17.375738 11.8299443,17.1985139 11.8299443,17.1985139 C11.8188499,15.9860661 12.4225183,15.0136227 12.4851693,13.8417206 C12.6215658,13.3584418 12.9641884,12.8928199 13.4771435,12.7607194 C13.4960693,12.6946691 13.516953,12.625349 13.537184,12.5560289 C13.6024455,12.2427805 13.8634913,11.4796054 13.3081163,11.253988 C13.0092188,11.1323509 12.8003822,10.9852092 12.7175001,10.5732123 C12.6117766,10.453537 12.5954612,10.3449791 12.6006821,10.2148405 C12.7240263,10.2808907 13.1018901,10.3855249 13.2813591,10.3332078 C13.2265395,10.2560401 13.0947113,10.1435585 13.0738277,10.0696606 C12.873475,10.0304228 12.4218657,9.91532529 12.4786432,9.33722178 C12.7305524,9.50986808 12.9054531,9.51771564 12.9948613,9.22539407 C13.0216185,8.38570527 12.8747802,7.36421468 13.3511889,6.66251212 Z M31.3258909,20.5233938 C31.8107835,20.5233938 32.1912578,20.9007306 32.1912578,21.3833555 C32.1912578,21.8659804 31.8107835,22.2439711 31.3258909,22.2439711 C30.8436087,22.2439711 30.4650923,21.8659804 30.4650923,21.3833555 C30.4650923,20.9007306 30.8436087,20.5233938 31.3258909,20.5233938 Z M31.3258909,20.6731514 C30.9310591,20.6731514 30.6347721,20.9778983 30.6347721,21.3833555 C30.6347721,21.7888127 30.9310591,22.0935596 31.3258909,22.0935596 C31.7246384,22.0935596 32.0261464,21.7888127 32.0261464,21.3833555 C32.0261464,20.9778983 31.7246384,20.6731514 31.3258909,20.6731514 Z M31.38306,20.9783561 C31.5357718,20.9783561 31.6336639,21.067949 31.6336639,21.2078972 C31.6336639,21.2929124 31.58276,21.3694261 31.4940044,21.4178194 L31.4940044,21.4178194 L31.4835626,21.4230511 L31.6963149,21.780115 L31.5220669,21.780115 L31.3315034,21.4518255 L31.1833599,21.4518255 L31.1833599,21.780115 L31.0221641,21.780115 L31.0221641,20.9783561 L31.38306,20.9783561 Z M31.3523871,21.0927996 L31.1833599,21.0927996 L31.1833599,21.3367279 L31.3439031,21.3367279 C31.4359217,21.3367279 31.4776891,21.2759093 31.4776891,21.2170527 C31.4776891,21.1418469 31.4280904,21.0927996 31.3523871,21.0927996 L31.3523871,21.0927996 Z M127.997165,12.6562814 C130.244117,12.6562814 131.976156,14.3336971 131.976156,16.7173932 C131.976156,19.0572736 130.244117,20.7641177 127.997165,20.7641177 C125.765223,20.7641177 124.017521,19.086702 124.017521,16.7173932 C124.017521,14.3480843 125.765223,12.6562814 127.997165,12.6562814 Z M77.7888505,10.286711 L77.7888505,16.8642733 C77.7888505,19.2773977 76.2323647,20.7494689 73.6917362,20.7494689 C71.5035196,20.7494689 69.9914116,19.395765 69.8001955,17.3207397 L71.8415739,17.012069 C71.973402,18.2624467 72.7519712,18.8654008 73.6917362,18.8654008 C74.7933496,18.8654008 75.5418985,18.1447333 75.5418985,16.8498861 L75.5418985,10.286711 L77.7888505,10.286711 Z M114.659159,10.1251821 C116.876091,10.1251821 118.403209,11.1989897 119.240513,13.097445 L117.258523,13.8776232 C116.744263,12.759346 115.87759,12.155738 114.688527,12.155738 C113.073306,12.155738 111.781129,13.4505852 111.781129,15.4373255 C111.781129,17.3939835 113.043285,18.7038719 114.702884,18.7189131 C115.892601,18.7189131 116.77363,18.1447333 117.287238,17.0264562 L119.211146,17.777206 C118.359484,19.645579 116.846723,20.7494689 114.644149,20.7494689 C111.824854,20.7494689 109.504809,18.6450152 109.504809,15.4373255 C109.504809,12.2289818 111.824854,10.1251821 114.659159,10.1251821 Z M81.8007333,12.7883166 L81.8007333,17.4530364 C81.8007333,18.4248258 82.3730763,18.954536 83.1953706,18.954536 C83.7096309,18.954536 84.2676164,18.7629248 84.781224,18.2920713 L84.781224,12.7883166 L86.8963478,12.7883166 L86.8963478,20.5874822 L84.8256018,20.5874822 L84.8112443,19.7929169 C84.208881,20.4109122 83.3865867,20.7490112 82.4618318,20.7490112 C80.6997725,20.7490112 79.6862621,19.5280618 79.6862621,17.92389 L79.6862621,12.7883166 L81.8007333,12.7883166 Z M135.605672,12.7883166 L135.605672,17.4530364 C135.605672,18.4248258 136.178668,18.954536 137.000962,18.954536 C137.515222,18.954536 138.073208,18.7629248 138.586815,18.2920713 L138.586815,12.7883166 L140.701939,12.7883166 L140.701939,20.5874822 L138.631193,20.5874822 L138.616836,19.7929169 C138.014472,20.4109122 137.192178,20.7490112 136.267423,20.7490112 C134.505364,20.7490112 133.491201,19.5280618 133.491201,17.92389 L133.491201,12.7883166 L135.605672,12.7883166 Z M101.483197,12.6706686 C103.906355,12.6706686 105.184174,14.4952261 105.184174,16.6879648 C105.184174,16.8939632 105.169164,17.0561461 105.154154,17.2765317 L99.7354953,17.2765317 C99.9417215,18.3948089 100.705281,19.1161303 101.776874,19.1161303 C102.541085,19.1161303 103.128438,18.8068057 103.568301,18.2038516 L105.007968,19.0572736 C104.317502,20.0728786 103.172164,20.7346894 101.688771,20.7346894 C99.5449319,20.7346894 97.6947696,19.1311715 97.6947696,16.6735776 C97.6947696,14.318656 99.3830834,12.6706686 101.483197,12.6706686 Z M52.5688867,10.1397655 C54.302231,10.1397655 55.6087654,10.7577607 56.5341729,11.6844267 L55.1245254,13.0976412 C54.3609663,12.3030759 53.450569,11.891079 52.6132645,11.891079 C51.5853966,11.891079 51.012401,12.3468914 51.012401,12.9799278 C51.012401,13.5828819 51.4235482,13.9360221 52.3339455,14.2015312 L53.8760737,14.6429564 C56.0199126,15.2609516 56.6810111,16.1876175 56.6810111,17.5118931 C56.6810111,19.3076762 55.0657901,20.734624 52.6132645,20.734624 C50.8655627,20.734624 49.4409051,20.1905266 48.3986796,19.2632067 L49.7495918,17.8061766 C50.5718861,18.5425392 51.5266613,19.0133927 52.6132645,19.0133927 C53.7292354,19.0133927 54.4046915,18.4836825 54.4046915,17.762361 C54.4046915,17.247038 54.1403826,16.820654 53.0687895,16.5263705 L51.4091906,16.0699042 C49.4852829,15.5401939 48.7661016,14.5540174 48.7661016,13.1859263 C48.7661016,11.464041 50.160739,10.1397655 52.5688867,10.1397655 Z M96.1943434,9.87491036 L96.1943434,20.5874822 L94.152965,20.5874822 L94.1386075,19.8223452 C93.5512544,20.4109122 92.8164104,20.7202368 91.9353807,20.7202368 C89.9383801,20.7202368 88.3969045,19.1160649 88.3969045,16.6878994 C88.3969045,14.3630601 89.9971154,12.6856444 92.0528513,12.6706032 C92.8464307,12.6706032 93.5218867,12.8916428 94.0798722,13.333068 L94.0798722,9.87491036 L96.1943434,9.87491036 Z M150,9.87491036 L150,20.5874822 L147.958622,20.5874822 L147.944264,19.8223452 C147.356911,20.4109122 146.62272,20.7202368 145.74169,20.7202368 C143.744689,20.7202368 142.202561,19.1160649 142.202561,16.6878994 C142.202561,14.3630601 143.803425,12.6856444 145.859161,12.6706032 C146.652087,12.6706032 147.327543,12.8916428 147.885529,13.333068 L147.885529,9.87491036 L150,9.87491036 Z M61.0005364,10.6250716 L61.0005364,12.788382 L63.4086842,12.788382 L63.4086842,14.4657977 L61.0005364,14.4657977 L61.0005364,17.7918548 C61.0005364,18.571379 61.4560614,18.8957447 62.1021498,18.8957447 C62.4989395,18.8957447 62.8213311,18.836888 63.2181208,18.6452768 L63.7030134,20.2638358 C63.1300178,20.5286909 62.4101839,20.705261 61.6028997,20.705261 C59.8995757,20.705261 58.9010754,19.8963085 58.9010754,18.2038516 L58.9010754,14.4657977 L57.4764178,14.4657977 L57.4764178,12.788382 L58.9010754,12.788382 L58.9010754,10.6250716 L61.0005364,10.6250716 Z M65.701776,18.3071124 C66.3478644,18.3071124 66.8914924,18.8368226 66.8914924,19.4986334 C66.8914924,20.1460571 66.3478644,20.6757673 65.701776,20.6757673 C65.0406775,20.6757673 64.5120597,20.1460571 64.5120597,19.4986334 C64.5120597,18.8368226 65.0406775,18.3071124 65.701776,18.3071124 Z M122.53328,9.87484497 L122.53328,20.5874168 L120.418809,20.5874168 L120.418809,9.87484497 L122.53328,9.87484497 Z M17.9938889,17.4627151 C17.7778735,17.036331 17.14549,17.1246161 16.8733497,17.161892 L16.8733497,17.161892 L16.8348454,17.1677777 C15.5061222,17.4136678 14.6655546,17.9551494 14.3398999,18.7771812 C14.3398999,18.7771812 14.2726806,18.9275927 14.4560653,19.0714647 C14.6942697,19.2591521 14.7895514,19.1675972 14.7895514,19.1675972 C15.6359925,18.2271981 16.6886598,17.731494 17.9194909,17.6916022 C17.9194909,17.6916022 17.9899732,17.6863705 18.0154252,17.6157425 C18.0402246,17.5451144 17.9938889,17.4627151 17.9938889,17.4627151 Z M127.982155,14.4514105 C126.851174,14.4514105 126.04389,15.3486481 126.04389,16.7173932 C126.04389,18.0710971 126.851174,18.9689886 127.982155,18.9689886 C129.127493,18.9689886 129.93543,18.0710971 129.93543,16.7173932 C129.93543,15.3486481 129.127493,14.4514105 127.982155,14.4514105 Z M146.226583,14.436304 C145.051224,14.436304 144.228929,15.378665 144.228929,16.6878994 C144.228929,17.9977878 145.051224,18.954536 146.226583,18.954536 C146.887029,18.954536 147.430004,18.7040681 147.871171,18.2037862 L147.871171,15.2020949 C147.430004,14.7011591 146.872671,14.436304 146.226583,14.436304 Z M92.4202733,14.436304 C91.2455671,14.436304 90.4232728,15.378665 90.4232728,16.6878994 C90.4232728,17.9977878 91.2455671,18.954536 92.4202733,18.954536 C93.0813719,18.954536 93.6243472,18.7040681 94.0648621,18.2037862 L94.0648621,15.2020949 C93.6243472,14.7011591 93.0663618,14.436304 92.4202733,14.436304 Z M101.46884,14.2597993 C100.602167,14.2597993 99.9117012,14.9072229 99.7505054,15.937215 L103.172164,15.937215 C103.084061,14.9660796 102.437972,14.2597993 101.46884,14.2597993 Z" id="Logo-&gt;-White"></path>
                    </g>
                </g>
                <g id="Group" filter="url(#filter-6)" transform="translate(315.000000, 575.000000)">
                    <circle id="Oval" stroke-opacity="0.285320149" stroke="#1874DC" stroke-width="2" fill="#FFFFFF" cx="42.5" cy="42.5" r="41.5"></circle>
                    <g transform="translate(10.200000, 23.120000)" id="Element/Logos/GenPlat">
                        <path d="M26.1667324,24.7446168 L5.00807911,24.7446168 C2.253248,24.7446168 -0.000574222222,22.4999703 -0.000574222222,19.754606 C-0.000574222222,17.0092417 2.253248,14.7645952 5.00807911,14.7645952 L26.1667324,14.7645952 C28.920128,14.7645952 31.1739502,17.0092417 31.1739502,19.754606 C31.1739502,22.4999703 28.920128,24.7446168 26.1667324,24.7446168" id="Fill-1" fill="#23AFE5"></path>
                        <path d="M42.9699102,11.4113594 L12.9237324,11.4113594 C10.1703369,11.4113594 7.91651467,9.16528225 7.91651467,6.42134853 C7.91651467,3.67598419 10.1703369,1.42990706 12.9237324,1.42990706 L42.9699102,1.42990706 C45.7233058,1.42990706 47.977128,3.67598419 47.977128,6.42134853 C47.977128,9.16528225 45.7233058,11.4113594 42.9699102,11.4113594" id="Fill-6" fill="#23AFE5"></path>
                        <path d="M59.5923516,24.7446168 L38.3274671,24.7446168 C35.5740716,24.7446168 33.3202493,22.4999703 33.3202493,19.754606 C33.3202493,17.0092417 35.5740716,14.7645952 38.3274671,14.7645952 L59.5923516,14.7645952 C62.3457471,14.7645952 64.5995693,17.0092417 64.5995693,19.754606 C64.5995693,22.4999703 62.3457471,24.7446168 59.5923516,24.7446168" id="Fill-4" fill="#1774DB"></path>
                        <path d="M52.297576,38.0784466 L22.2513982,38.0784466 C19.4980027,38.0784466 17.2441804,35.8323694 17.2441804,33.0884357 C17.2441804,30.3430714 19.4980027,28.0969943 22.2513982,28.0969943 L52.297576,28.0969943 C55.0509716,28.0969943 57.3047938,30.3430714 57.3047938,33.0884357 C57.3047938,35.8323694 55.0509716,38.0784466 52.297576,38.0784466" id="Fill-9" fill="#23AFE5"></path>
                    </g>
                </g>
                <g id="Group-4" filter="url(#filter-7)" transform="translate(315.000000, 35.000000)">
                    <g id="Group-2-Copy" fill="#FFFFFF" stroke="#1874DC" stroke-opacity="0.285320149" stroke-width="2">
                        <g id="Group-Copy">
                            <circle id="Oval" cx="42.5" cy="42.5" r="41.5"></circle>
                        </g>
                    </g>
                    <g id="Element/Logos/PeCan" transform="translate(15.000000, 14.000000)">
                        <path d="M31.6723289,0.00477631579 C30.6721974,-0.0675921053 29.8110132,0.713986842 29.8110132,1.71701316 L29.8110132,12.1149079 L29.8471974,12.1149079 C29.84575,12.1424079 29.8312763,12.1655658 29.8312763,12.1930658 C29.8312763,13.2699079 30.7040395,14.1441184 31.7808816,14.1441184 C31.8083816,14.1441184 31.8315395,14.1281974 31.8590395,14.12675 L31.8590395,14.1614868 C36.4124605,15.0024079 39.9975921,18.5860921 40.8385132,23.1409605 L40.87325,23.1409605 C40.8718026,23.1684605 40.8573289,23.1916184 40.8573289,23.2191184 C40.8573289,24.2959605 41.7300921,25.1687237 42.8069342,25.1687237 C42.8344342,25.1687237 42.8590395,25.15425 42.8865395,25.1528026 L42.8865395,25.1889868 L53.2829868,25.1889868 C54.2874605,25.1889868 55.0690395,24.32925 54.9952237,23.3276711 C54.0877237,10.8643816 44.1341711,0.912276316 31.6723289,0.00477631579" id="Fill-1" fill="#1774DB"></path>
                        <path d="M14.2474605,32.0001579 C12.9911447,25.5333158 17.2927237,19.7916053 23.2211447,18.7089737 C24.4195658,18.4904211 25.2518026,17.3788421 25.2518026,16.1601579 L25.2518026,6.53081579 C25.2518026,5.38594737 24.2661447,4.49002632 23.1256184,4.58555263 C9.24680263,5.742 -1.44201316,18.1227895 0.158776316,32.6239737 C0.659565789,37.1513421 2.40509211,41.3298947 5.03061842,44.8252895 C5.78614474,45.8326579 7.26825,45.9267368 8.15693421,45.0366053 L15.2490395,37.9445 C15.9321974,37.2613421 16.0262763,36.2148947 15.5370658,35.3826579 C14.9277237,34.3463421 14.4833816,33.2087105 14.2474605,32.0001579" id="Fill-4" fill="#23AFE5"></path>
                        <path d="M48.3714868,29.7486316 L38.2616184,29.7486316 C37.2918816,29.7486316 36.4929342,30.4708684 36.3496447,31.4304737 C35.4320132,37.5369211 29.5933289,42.0338947 23.0005658,40.7529737 C22.2971447,40.6154737 21.6183289,40.4070526 20.9684605,40.1378421 C20.3504342,39.8816579 19.6354342,40.0698158 19.1621447,40.5431053 L11.3116184,48.3936316 C10.5676711,49.1375789 10.7022763,50.3794211 11.5837237,50.9525789 C14.7722763,53.0281053 18.4413553,54.406 22.37675,54.8402105 C36.8431974,56.4381053 49.1993816,45.8028421 50.4064868,31.9717895 C50.5106974,30.7791579 49.5684605,29.7486316 48.3714868,29.7486316" id="Fill-7" fill="#23AFE5"></path>
                    </g>
                </g>
                <g id="Group-2" filter="url(#filter-8)" transform="translate(40.000000, 306.000000)">
                    <g id="Group-Copy" fill="#FFFFFF" stroke="#1874DC" stroke-opacity="0.285320149" stroke-width="2">
                        <circle id="Oval" cx="42.5" cy="42.5" r="41.5"></circle>
                    </g>
                    <g id="Element/Logos/VizComm" transform="translate(15.300000, 19.720000)">
                        <path d="M39.7957474,19.8415811 L39.7957474,38.4493665 C39.7957474,41.3589787 37.4136,43.7393104 34.5017684,43.7393104 C31.5913684,43.7393104 29.2077895,41.3589787 29.2077895,38.4493665 L29.2077895,19.8415811 C29.2077895,16.9319689 31.5913684,14.5516372 34.5017684,14.5516372 C37.4136,14.5516372 39.7957474,16.9319689 39.7957474,19.8415811" id="Fill-1" fill="#1774DB"></path>
                        <path d="M25.1920674,6.71985951 L25.1920674,38.4495095 C25.1920674,41.3591217 22.80992,43.7394534 19.8980884,43.7394534 C16.9862568,43.7394534 14.6041095,41.3591217 14.6041095,38.4495095 L14.6041095,6.71985951 C14.6041095,3.81024732 16.9862568,1.42991561 19.8980884,1.42991561 C22.80992,1.42991561 25.1920674,3.81024732 25.1920674,6.71985951" id="Fill-6" fill="#23AFE5"></path>
                        <path d="M10.5875284,19.8415811 L10.5875284,38.4493665 C10.5875284,41.3589787 8.20538105,43.7393104 5.29354947,43.7393104 C2.38314947,43.7393104 -0.000429473684,41.3589787 -0.000429473684,38.4493665 L-0.000429473684,19.8415811 C-0.000429473684,16.9319689 2.38314947,14.5516372 5.29354947,14.5516372 C8.20538105,14.5516372 10.5875284,16.9319689 10.5875284,19.8415811" id="Fill-3" fill="#1774DB"></path>
                        <path d="M54.4002863,6.71985951 L54.4002863,38.4495095 C54.4002863,41.3591217 52.0181389,43.7394534 49.1063074,43.7394534 C46.1944758,43.7394534 43.8123284,41.3591217 43.8123284,38.4495095 L43.8123284,6.71985951 C43.8123284,3.81024732 46.1944758,1.42991561 49.1063074,1.42991561 C52.0181389,1.42991561 54.4002863,3.81024732 54.4002863,6.71985951" id="Fill-8" fill="#23AFE5"></path>
                    </g>
                </g>
            </g>
        </g>
    </g>
</svg>