<svg
  xmlns="http://www.w3.org/2000/svg"
  width="512"
  height="511"
  viewBox="0 0 512 511"
>
  <path
    d="M282.666667,511 L229.333333,511 C149.930667,511 85.3333333,446.402667 85.3333333,367 L85.3333333,249.666667 C85.3333333,170.264 149.930667,105.666667 229.333333,105.666667 L282.666667,105.666667 C362.069333,105.666667 426.666667,170.264 426.666667,249.666667 L426.666667,367 C426.666667,446.402667 362.069333,511 282.666667,511 Z M229.333333,137.666667 C167.573333,137.666667 117.333333,187.906667 117.333333,249.666667 L117.333333,367 C117.333333,428.76 167.573333,479 229.333333,479 L282.666667,479 C344.426667,479 394.666667,428.76 394.666667,367 L394.666667,249.666667 C394.666667,187.906667 344.426667,137.666667 282.666667,137.666667 L229.333333,137.666667 Z"
  />
  <path
    d="M340.693333,151.533333 C338.176,151.533333 335.616,150.936 333.226667,149.677333 C325.418667,145.538667 322.432,135.874667 326.549333,128.045333 C329.216,123.032 330.666667,116.973333 330.666667,111 C330.666667,90.4133333 313.92,73.6666667 293.333333,73.6666667 L218.666667,73.6666667 C208.64,73.6666667 199.232,77.528 192.213333,84.5466667 C185.194667,91.5653333 181.333333,100.973333 181.333333,111 C181.333333,116.973333 182.784,123.032 185.450667,128.045333 C189.568,135.853333 186.602667,145.538667 178.773333,149.677333 C170.965333,153.816 161.301333,150.808 157.162667,143 C152.042667,133.336 149.333333,122.264 149.333333,111 C149.333333,92.4186667 156.522667,74.9893333 169.6,61.9333333 C182.677333,48.8773333 200.085333,41.6666667 218.666667,41.6666667 L293.333333,41.6666667 C331.562667,41.6666667 362.666667,72.7706667 362.666667,111 C362.666667,122.264 359.957333,133.336 354.837333,143 C351.978667,148.44 346.432,151.533333 340.693333,151.533333 L340.693333,151.533333 Z"
  />
  <path
    d="M219.157333 68.3333333C210.325333 68.3333333 203.157333 61.1653333 203.157333 52.3333333L203.157333 16.9413333C203.157333 8.10933333 210.325333.941333333 219.157333.941333333 227.989333.941333333 235.157333 8.10933333 235.157333 16.9413333L235.157333 52.3333333C235.157333 61.1653333 227.989333 68.3333333 219.157333 68.3333333zM293.824 68.3333333C284.992 68.3333333 277.824 61.1653333 277.824 52.3333333L277.824 16.9413333C277.824 8.10933333 284.992.941333333 293.824.941333333 302.656.941333333 309.824 8.10933333 309.824 16.9413333L309.824 52.3333333C309.824 61.1653333 302.656 68.3333333 293.824 68.3333333zM256 404.333333C247.168 404.333333 240 397.165333 240 388.333333L240 228.333333C240 219.501333 247.168 212.333333 256 212.333333 264.832 212.333333 272 219.501333 272 228.333333L272 388.333333C272 397.165333 264.832 404.333333 256 404.333333zM496 324.333333L416 324.333333C407.168 324.333333 400 317.165333 400 308.333333 400 299.501333 407.168 292.333333 416 292.333333L496 292.333333C504.832 292.333333 512 299.501333 512 308.333333 512 317.165333 504.832 324.333333 496 324.333333zM96 324.333333L16 324.333333C7.168 324.333333 0 317.165333 0 308.333333 0 299.501333 7.168 292.333333 16 292.333333L96 292.333333C104.832 292.333333 112 299.501333 112 308.333333 112 317.165333 104.832 324.333333 96 324.333333zM37.3333333 489.666667C32.448 489.666667 27.6266667 487.448 24.4693333 483.202667 19.2 476.098667 20.672 466.093333 27.776 460.824L96.6826667 409.624C103.765333 404.376 113.792 405.826667 119.061333 412.930667 124.330667 420.034667 122.858667 430.04 115.754667 435.309333L46.848 486.509333C44.0106667 488.642667 40.6613333 489.666667 37.3333333 489.666667zM405.781333 210.2C400.896 210.2 396.074667 207.981333 392.917333 203.736 387.648 196.632 389.12 186.626667 396.224 181.357333L465.130667 130.157333C472.213333 124.909333 482.24 126.36 487.509333 133.464 492.778667 140.568 491.306667 150.573333 484.202667 155.842667L415.296 207.042667C412.437333 209.176 409.088 210.2 405.781333 210.2L405.781333 210.2zM474.666667 489.666667C471.338667 489.666667 467.989333 488.642667 465.130667 486.509333L396.224 435.309333C389.12 430.04 387.648 420.013333 392.917333 412.930667 398.208 405.826667 408.234667 404.397333 415.296 409.624L484.202667 460.824C491.306667 466.093333 492.778667 476.12 487.509333 483.202667 484.373333 487.448 479.552 489.666667 474.666667 489.666667zM106.218667 210.2C102.890667 210.2 99.5413333 209.176 96.6826667 207.042667L27.776 155.842667C20.6933333 150.573333 19.2213333 140.546667 24.4906667 133.464 29.76 126.36 39.808 124.930667 46.8693333 130.157333L115.776 181.357333C122.88 186.626667 124.352 196.653333 119.082667 203.736 115.946667 207.96 111.104 210.2 106.218667 210.2z"
  />
</svg>
