<?xml version="1.0" encoding="UTF-8"?>
<svg
  width="14px"
  height="14px"
  viewBox="0 0 14 14"
  version="1.1"
  xmlns="http://www.w3.org/2000/svg"
  xmlns:xlink="http://www.w3.org/1999/xlink"
>
  <title>command-symbol</title>
  <g id="Documentation" stroke="none" stroke-width="1" fill-rule="evenodd">
    <g
      id="Light-Theme"
      transform="translate(-682.000000, -31.000000)"
      fill-rule="nonzero"
    >
      <g id="Navbar" transform="translate(-1.000000, -0.677554)">
        <g id="Search-Box" transform="translate(342.000000, 23.677554)">
          <g id="Group" transform="translate(332.000000, 0.000000)">
            <g id="Group-5" transform="translate(9.000000, 4.000000)">
              <g id="command-symbol" transform="translate(0.000000, 4.000000)">
                <path
                  d="M11.2,8.4 L11.2,8.4 L9.8,8.4 L9.8,5.6 L11.2,5.6 C12.7463,5.6 14,4.3463 14,2.8 C14,1.2537 12.7463,0 11.2,0 C9.653525,0 8.4,1.2537 8.4,2.8 L8.4,4.2 L5.6,4.2 L5.6,2.8 C5.6,1.2537 4.3463,0 2.8,0 C1.2537,0 0,1.2537 0,2.8 C0,4.3463 1.2537,5.6 2.8,5.6 L4.2,5.6 L4.2,8.4 L2.8,8.4 L2.8,8.4 L2.8,8.4 C1.2537,8.4 0,9.6537 0,11.2 C0,12.7463 1.2537,14 2.8,14 C4.346475,14 5.6,12.7463 5.6,11.2 L5.6,11.2 L5.6,9.8 L8.4,9.8 L8.4,11.1965 C8.4,11.1979 8.399825,11.19895 8.399825,11.2 C8.399825,12.7463 9.653525,14 11.199825,14 C12.746125,14 13.999825,12.7463 13.999825,11.2 C13.999825,9.6537 12.7463,8.40035 11.2,8.4 Z M11.2,1.4 C11.97315,1.4 12.6,2.02685 12.6,2.8 C12.6,3.57315 11.97315,4.2 11.2,4.2 L9.8,4.2 L9.8,2.8 C9.8,2.02685 10.42685,1.4 11.2,1.4 Z M1.4,2.8 C1.4,2.02685 2.02685,1.4 2.8,1.4 C3.57315,1.4 4.2,2.02685 4.2,2.8 L4.2,4.2 L2.8,4.2 C2.02685,4.2 1.4,3.572975 1.4,2.8 Z M2.8,12.6 C2.02685,12.6 1.4,11.97315 1.4,11.2 C1.4,10.42685 2.02685,9.8 2.8,9.8 L2.8,9.8 L4.2,9.8 L4.2,11.2 C4.2,11.97315 3.57315,12.6 2.8,12.6 Z M5.6,8.4 L5.6,5.6 L8.4,5.6 L8.4,8.4 L5.6,8.4 Z M11.2,12.6 C10.42685,12.6 9.8,11.97315 9.8,11.2 L9.8,11.2 L9.8,9.8 L11.199825,9.8 C11.972975,9.8 12.599825,10.42685 12.599825,11.2 C12.599825,11.97315 11.97315,12.6 11.2,12.6 Z"
                  id="Shape"
                ></path>
              </g>
            </g>
          </g>
        </g>
      </g>
    </g>
  </g>
</svg>
