<?xml version="1.0" encoding="UTF-8"?>
<svg width="90px" height="90px" viewBox="0 0 90 90" version="1.1" xmlns="http://www.w3.org/2000/svg" xmlns:xlink="http://www.w3.org/1999/xlink">
    <title>Element/Logos/Docs</title>
    <g id="Documentation" stroke="none" stroke-width="1" fill="none" fill-rule="evenodd">
        <g id="Desktop-HD" transform="translate(-122.000000, -525.000000)">
            <g id="Call-To-Actions" transform="translate(80.000000, 486.000000)">
                <g id="Element-/-Logo-/-RFCS" transform="translate(42.000000, 39.000000)">
                    <rect id="Rectangle" fill="#8332A7" x="59.4713656" y="22.5991189" width="28.9427313" height="45.1982379"></rect>
                    <rect id="Rectangle" fill="#FD5339" x="29.7356828" y="22.5991189" width="29.7356828" height="45.1982379"></rect>
                    <rect id="Rectangle" fill="#FFC32C" x="1.18942731" y="22.5991189" width="29.7356828" height="43.215859"></rect>
                    <circle id="Oval" fill="#FFFFFF" fill-rule="nonzero" cx="16.4537445" cy="39.845815" r="4.95594714"></circle>
                    <circle id="Oval" fill="#FFFFFF" fill-rule="nonzero" cx="73.1497797" cy="45.3964758" r="4.95594714"></circle>
                    <path d="M84.7265626,0 L62.9296874,0 C61.5794678,0 60.3479002,0.510314907 59.4140626,1.34692383 C58.4802246,0.510314907 57.248657,0 55.8984374,0 L34.1015625,0 C32.7513428,0 31.5197754,0.510314907 30.5859375,1.34692383 C29.6520996,0.510314907 28.4205322,0 27.0703125,0 L5.27343748,0 C2.36535637,0 0,2.36535637 0,5.27343748 L0,84.7265626 C0,87.6346438 2.36535637,90 5.27343748,90 L27.0703125,90 C28.4205322,90 29.6520996,89.4896849 30.5859375,88.6530763 C31.5197754,89.4896849 32.7513428,90 34.1015625,90 L55.8984374,90 C57.248657,90 58.4802246,89.4896849 59.4140626,88.6530763 C60.3479002,89.4896849 61.5794678,90 62.9296874,90 L84.7265626,90 C87.6346438,90 90,87.6346438 90,84.7265626 L90,5.27343748 C90,2.36535637 87.6346438,0 84.7265626,0 Z M32.34375,24.2578125 L57.65625,24.2578125 L57.65625,65.7421874 L32.34375,65.7421874 L32.34375,24.2578125 Z M61.1718748,24.2578125 L86.4843748,24.2578125 L86.4843748,65.7421874 L61.1718748,65.7421874 L61.1718748,24.2578125 Z M3.56828194,24.185022 L28.8807819,24.185022 L28.8807819,65.6693968 L3.56828194,65.6693968 L3.56828194,24.185022 Z M62.9296874,3.515625 L84.7265626,3.515625 C85.696106,3.515625 86.4843748,4.30389408 86.4843748,5.27343748 L86.4843748,20.7421875 L61.1718748,20.7421875 L61.1718748,5.27343748 C61.1718748,4.30389408 61.960144,3.515625 62.9296874,3.515625 Z M34.1015625,3.515625 L55.8984374,3.515625 C56.8679808,3.515625 57.65625,4.30389408 57.65625,5.27343748 L57.65625,20.7421875 L32.34375,20.7421875 L32.34375,5.27343748 C32.34375,4.30389408 33.1320191,3.515625 34.1015625,3.515625 Z M5.32609446,3.56828194 L27.1229694,3.56828194 C28.0925129,3.56828194 28.8807819,4.35655102 28.8807819,5.32609446 L28.8807819,20.7948445 L3.56828194,20.7948445 L3.56828194,5.32609446 C3.56828194,4.35655102 4.35655102,3.56828194 5.32609446,3.56828194 Z M27.0703125,86.4843748 L5.27343748,86.4843748 C4.30389408,86.4843748 3.515625,85.696106 3.515625,84.7265626 L3.515625,69.2578126 L28.828125,69.2578126 L28.828125,84.7265626 C28.828125,85.696106 28.0398559,86.4843748 27.0703125,86.4843748 Z M55.8984374,86.4843748 L34.1015625,86.4843748 C33.1320191,86.4843748 32.34375,85.696106 32.34375,84.7265626 L32.34375,69.2578126 L57.65625,69.2578126 L57.65625,84.7265626 C57.65625,85.696106 56.8679808,86.4843748 55.8984374,86.4843748 Z M84.7265626,87.2773263 L62.9296874,87.2773263 C61.960144,87.2773263 61.1718748,86.4890576 61.1718748,85.5195141 L61.1718748,79.3825513 L70.3125,79.3825513 C71.2836916,79.3825513 72.0703126,78.5953808 72.0703126,77.6247387 C72.0703126,76.6535471 71.2836916,75.8669261 70.3125,75.8669261 L61.1718748,75.8669261 L61.1718748,70.0507641 L86.4843748,70.0507641 L86.4843748,85.5195141 C86.4843748,86.4890576 85.696106,87.2773263 84.7265626,87.2773263 Z" id="Shape" fill="#002856"></path>
                    <path d="M16.4537445,47.5770925 C20.4982547,47.5770925 23.7885463,44.2868007 23.7885463,40.2422907 C23.7885463,36.1977806 20.4982547,32.907489 16.4537445,32.907489 C12.4092343,32.907489 9.11894273,36.1977806 9.11894273,40.2422907 C9.11894273,44.2868007 12.4092343,47.5770925 16.4537445,47.5770925 Z M16.4537445,36.4002517 C18.5723233,36.4002517 20.2957835,38.1237119 20.2957835,40.2422907 C20.2957835,42.3608697 18.5723233,44.0843297 16.4537445,44.0843297 C14.3351657,44.0843297 12.6117055,42.3608697 12.6117055,40.2422907 C12.6117055,38.1237119 14.3351657,36.4002517 16.4537445,36.4002517 Z" id="Shape" fill="#002856" fill-rule="nonzero"></path>
                    <path d="M22.0292502,52.7312775 L10.8793392,52.7312775 C9.90727037,52.7312775 9.11894273,53.5296806 9.11894273,54.5154185 C9.11894273,55.5011564 9.90727037,56.2995595 10.8793392,56.2995595 L22.0281498,56.2995595 C23.0007688,56.2995595 23.7885463,55.5011564 23.7885463,54.5154185 C23.7885463,53.5296806 23.0007688,52.7312775 22.0292502,52.7312775 Z" id="Path" fill="#002856"></path>
                    <path d="M50.5744053,52.7312775 L39.4255947,52.7312775 C38.4529757,52.7312775 37.6651982,53.5296806 37.6651982,54.5154185 C37.6651982,55.5011564 38.4529757,56.2995595 39.4255947,56.2995595 L50.5744053,56.2995595 C51.5464743,56.2995595 52.3348018,55.5011564 52.3348018,54.5154185 C52.3348018,53.5296806 51.545924,52.7312775 50.5744053,52.7312775 Z" id="Path" fill="#002856"></path>
                    <path d="M50.5744053,43.215859 L39.4255947,43.215859 C38.4529757,43.215859 37.6651982,44.0142621 37.6651982,45 C37.6651982,45.9857379 38.4529757,46.784141 39.4255947,46.784141 L50.5744053,46.784141 C51.5464743,46.784141 52.3348018,45.9857379 52.3348018,45 C52.3348018,44.0142621 51.545924,43.215859 50.5744053,43.215859 Z" id="Path" fill="#002856"></path>
                    <path d="M39.473173,37.2687225 L50.9233028,37.2687225 C51.9222089,37.2687225 52.7312775,36.4703194 52.7312775,35.4845815 C52.7312775,34.4988436 51.9222089,33.7004405 50.9233028,33.7004405 L39.473173,33.7004405 C38.474832,33.7004405 37.6651982,34.4988436 37.6651982,35.4845815 C37.6651982,36.4703194 38.475397,37.2687225 39.473173,37.2687225 Z" id="Path" fill="#002856"></path>
                    <path d="M77.1145374,74.9339207 C76.645643,74.9339207 76.184554,75.1229282 75.8533726,75.4552245 C75.5210767,75.7869633 75.3303965,76.246937 75.3303965,76.7180617 C75.3303965,77.1869565 75.5210767,77.6474877 75.8533726,77.9792265 C76.184554,78.3109653 76.645643,78.5022026 77.1145374,78.5022026 C77.5834319,78.5022026 78.0445209,78.3109653 78.3757023,77.9792265 C78.7079981,77.6474877 78.8986784,77.1869565 78.8986784,76.7180617 C78.8986784,76.246937 78.7079981,75.7880782 78.3757023,75.4552245 C78.0445209,75.1229282 77.5834319,74.9339207 77.1145374,74.9339207 Z" id="Path" fill="#002856"></path>
                    <path d="M73.5462555,38.061674 C69.5017455,38.061674 66.2114537,41.3519658 66.2114537,45.3964758 C66.2114537,49.4409858 69.5017455,52.7312775 73.5462555,52.7312775 C77.5907655,52.7312775 80.8810573,49.4409858 80.8810573,45.3964758 C80.8810573,41.3519658 77.5907655,38.061674 73.5462555,38.061674 Z M73.5462555,49.2385147 C71.4276765,49.2385147 69.7042166,47.5150548 69.7042166,45.3964758 C69.7042166,43.2778968 71.4276765,41.5544368 73.5462555,41.5544368 C75.6648345,41.5544368 77.3882944,43.2778968 77.3882944,45.3964758 C77.3882944,47.5150548 75.6648345,49.2385147 73.5462555,49.2385147 Z" id="Shape" fill="#002856"></path>
                </g>
            </g>
        </g>
    </g>
</svg>