<svg
  xmlns="http://www.w3.org/2000/svg"
  width="512"
  height="512"
  viewBox="0 0 512 512"
>
  <polygon points="230.4 102.4 281.6 102.4 281.6 307.2 230.4 307.2" />
  <polygon points="230.4 358.4 281.6 358.4 281.6 409.6 230.4 409.6" />
  <path
    d="M256,0 C115.2,0 0,115.2 0,256 C0,396.8 115.2,512 256,512 C396.8,512 512,396.8 512,256 C512,115.2 396.8,0 256,0 Z M256,460.8 C143.36,460.8 51.2,368.64 51.2,256 C51.2,143.36 143.36,51.2 256,51.2 C368.64,51.2 460.8,143.36 460.8,256 C460.8,368.64 368.64,460.8 256,460.8 Z"
  />
</svg>
