<?xml version="1.0" encoding="UTF-8"?>
<svg
  width="27px"
  height="27px"
  viewBox="0 0 27 27"
  version="1.1"
  xmlns="http://www.w3.org/2000/svg"
  xmlns:xlink="http://www.w3.org/1999/xlink"
>
  <title>chat</title>
  <g
    id="Documentation"
    stroke="none"
    stroke-width="1"
    fill="none"
    fill-rule="evenodd"
  >
    <g
      id="Light-Theme"
      transform="translate(-1214.000000, -190.000000)"
      fill="#FFFFFF"
      fill-rule="nonzero"
    >
      <g id="chat" transform="translate(1214.000000, 190.000000)">
        <path
          d="M24.1071449,0 L2.89285512,0 C1.29517418,0 0,1.29518472 0,2.89287867 L0,18.3215837 C0,19.9192777 1.29517418,21.2144624 2.89285512,21.2144624 L6.31608586,21.2144624 L5.79152986,25.9298546 C5.73305125,26.4592175 6.11477252,26.935695 6.64413111,26.9941741 C6.91748332,27.0243459 7.19072252,26.936373 7.39514342,26.752404 L13.5491842,21.2144624 L24.1071449,21.2144624 C25.7048258,21.2144624 27,19.9192777 27,18.3215837 L27,2.89287867 C27,1.29518472 25.7048258,0 24.1071449,0 Z M25.0714488,18.3215837 C25.0714488,18.8541672 24.6396675,19.2858955 24.1070884,19.2858955 L13.1788761,19.2858955 C12.9406111,19.285952 12.7108212,19.3742639 12.5337468,19.5337112 L7.98812222,23.6252135 L8.35165015,20.3572211 C8.41075027,19.8279712 8.02965051,19.3509852 7.50034842,19.2918281 C7.46475275,19.287873 7.42898756,19.285839 7.39316588,19.2858955 L2.89285512,19.2858955 C2.36027598,19.2858955 1.92855125,18.8541672 1.92855125,18.3215837 L1.92855125,2.89287867 C1.92855125,2.36029519 2.36027598,1.92856695 2.89285512,1.92856695 L24.1071449,1.92856695 C24.639724,1.92856695 25.0714488,2.36029519 25.0714488,2.89287867 L25.0714488,18.3215837 L25.0714488,18.3215837 Z"
          id="Shape"
        ></path>
      </g>
    </g>
  </g>
</svg>
