<svg height="38" viewBox="0 0 38 38" width="38" xmlns="http://www.w3.org/2000/svg"><g fill="none" fill-rule="evenodd"><path d="m21.8827.0033c-.691-.05-1.286.49-1.286 1.183v7.184h.025c-.001.019-.011.035-.011.054 0 .744.603 1.348 1.347 1.348.019 0 .035-.011.054-.012v.024c3.146.581 5.623 3.057 6.204 6.204h.024c-.001.019-.011.035-.011.054 0 .744.603 1.347 1.347 1.347.019 0 .036-.01.055-.011v.025h7.183c.694 0 1.234-.594 1.183-1.286-.627-8.611-7.504-15.487-16.114-16.114" fill="#1774db"/><g fill="#23afe5"><path d="m9.8437 22.1092c-.868-4.468 2.104-8.435 6.2-9.183.828-.151 1.403-.919 1.403-1.761v-6.653c0-.791-.681-1.41-1.469-1.344-9.589.799-16.974 9.353-15.868 19.372.346 3.128 1.552 6.015 3.366 8.43.522.696 1.546.761 2.16.146l4.9-4.9c.472-.472.537-1.195.199-1.77-.421-.716-.728-1.502-.891-2.337"/><path d="m33.4203 20.5536h-6.985c-.67 0-1.222.499-1.321 1.162-.634 4.219-4.668 7.326-9.223 6.441-.486-.095-.955-.239-1.404-.425-.427-.177-.921-.047-1.248.28l-5.424 5.424c-.514.514-.421 1.372.188 1.768 2.203 1.434 4.738 2.386 7.457 2.686 9.995 1.104 18.532-6.244 19.366-15.8.072-.824-.579-1.536-1.406-1.536"/></g></g></svg>