<svg height="30" viewBox="0 0 38 30" width="38" xmlns="http://www.w3.org/2000/svg"><g fill="none" fill-rule="evenodd" transform="translate(0 -1)"><path d="m27.7985 13.8705v13.008c0 2.034-1.664 3.698-3.698 3.698-2.033 0-3.698-1.664-3.698-3.698v-13.008c0-2.034 1.665-3.698 3.698-3.698 2.034 0 3.698 1.664 3.698 3.698" fill="#1774db"/><path d="m17.5974 4.6976v22.181c0 2.034-1.664 3.698-3.698 3.698s-3.698-1.664-3.698-3.698v-22.181c0-2.034 1.664-3.698 3.698-3.698s3.698 1.664 3.698 3.698" fill="#23afe5"/><path d="m7.3957 13.8705v13.008c0 2.034-1.664 3.698-3.698 3.698-2.033 0-3.698-1.664-3.698-3.698v-13.008c0-2.034 1.665-3.698 3.698-3.698 2.034 0 3.698 1.664 3.698 3.698" fill="#1774db"/><path d="m38.0002 4.6976v22.181c0 2.034-1.664 3.698-3.698 3.698s-3.698-1.664-3.698-3.698v-22.181c0-2.034 1.664-3.698 3.698-3.698s3.698 1.664 3.698 3.698" fill="#23afe5"/></g></svg>