<?xml version="1.0" encoding="UTF-8"?>
<svg
  width="231px"
  height="45px"
  viewBox="0 0 231 45"
  version="1.1"
  xmlns="http://www.w3.org/2000/svg"
  xmlns:xlink="http://www.w3.org/1999/xlink"
>
  <title>stjudecloud-full-logo</title>
  <defs>
    <filter>
      <feColorMatrix
        in="SourceGraphic"
        type="matrix"
        values="0 0 0 0 0.000000 0 0 0 0 0.156863 0 0 0 0 0.337255 0 0 0 1.000000 0"
      ></feColorMatrix>
    </filter>
  </defs>
  <g stroke="none" stroke-width="1" fill="none" fill-rule="evenodd">
    <g transform="translate(-40.000000, -36.000000)">
      <g transform="translate(40.500000, 36.000000)" filter="url(#filter-1)">
        <g>
          <path
            d="M62.5345,0 L62.5345,44.345 L62.1355,44.345 L62.1355,0 L62.5345,0 Z M20.458,10.1879 C22.226,5.9619 28.286,2.8159 33.594,9.6389 C34.63,11.0599 35.435,13.1269 34.969,14.8029 C34.711,15.1849 34.639,14.8219 34.295,15.2869 C33.877,15.8499 33.523,16.4319 32.586,16.8689 C31.147,17.6829 33.558,19.6489 31.419,19.7769 C31.229,20.0329 31.519,20.5439 31.032,20.6239 C30.839,20.6549 30.579,20.5289 30.482,20.7849 C30.482,21.0239 30.525,21.1159 30.194,21.2879 C29.968,21.3319 29.718,21.0639 29.559,21.3119 C28.958,22.1309 28.347,22.0419 27.255,21.4079 C28.413,22.6169 30.023,24.5279 30.216,25.9159 C30.311,26.7029 30.783,28.7579 30.801,29.5219 C32.89,28.8299 33.357,28.3719 33.728,28.0019 C33.917,27.8169 34.092,27.6429 34.424,27.4699 C34.495,27.4209 34.726,27.2679 34.752,27.2499 L34.752,27.2499 C34.896,27.1269 35.042,27.0749 35.172,27.0319 C35.279,26.9969 35.371,26.9649 35.449,26.8969 C35.559,26.7999 35.725,26.7499 35.804,26.7309 C35.843,26.6909 35.912,26.6169 35.916,26.6119 C35.964,26.5679 36.215,26.3549 36.426,26.4589 C36.503,26.4989 36.555,26.5749 36.576,26.6739 C36.583,26.7089 36.585,26.7439 36.585,26.7809 C36.585,26.9939 36.469,27.2569 36.261,27.5069 C36.169,27.6149 36,27.7309 35.788,27.8549 C35.879,27.8899 36.096,27.8959 36.447,27.7829 C36.555,27.5959 36.737,27.4369 36.783,27.3999 C36.835,27.3139 37.021,27.0249 37.157,26.9309 C37.283,26.8499 37.413,26.8239 37.516,26.8629 C37.589,26.8899 37.643,26.9489 37.662,27.0199 C37.662,27.0199 37.654,27.0889 37.645,27.1539 C37.714,27.0689 37.799,26.9769 37.884,26.9279 C38.101,26.7959 38.218,26.8389 38.239,26.8539 C38.252,26.8579 38.304,26.8969 38.355,26.9609 C38.452,26.9399 38.546,26.9369 38.617,26.9769 C38.687,27.0159 38.732,27.0809 38.742,27.1609 L38.742,27.1609 L38.742,27.1799 C38.742,27.2529 38.701,27.3579 38.663,27.4389 C38.663,27.4389 38.66,27.4469 38.658,27.4539 C38.723,27.4469 38.781,27.4469 38.83,27.4729 C38.896,27.5089 38.938,27.5749 38.941,27.6539 L38.941,27.6539 L38.859,27.9059 L38.851,27.9369 L38.802,28.048 L38.815,28.0259 C38.69,28.3209 38.382,29.0159 38.28,29.1239 C38.181,29.2289 37.589,29.8039 37.386,29.9489 C37.228,30.0629 36.627,30.4369 35.553,30.4999 C35.526,30.5119 35.507,30.5199 35.482,30.5319 C35.127,30.7779 34.135,32.1119 33.415,33.1509 L33.415,33.1509 L33.427,33.1659 C40.748,34.0399 47.477,36.2879 53.151,39.5569 C45.366,36.4259 36.283,34.6229 26.576,34.6229 C16.868,34.6229 7.784,36.4259 8.52651283e-14,39.5569 C5.249,36.5309 11.405,34.3809 18.097,33.3829 C18,31.3159 18.586,28.6869 18.127,26.6819 C18.11,26.5699 18.127,26.2989 18.127,26.2989 C18.1191538,25.4432077 18.3119704,24.6656929 18.5313323,23.9002873 L18.7530938,23.1364712 C18.9345207,22.4992432 19.0940769,21.8551308 19.131,21.1659 C19.34,20.4269 19.865,19.7149 20.651,19.5129 C20.68,19.4119 20.712,19.3059 20.743,19.1999 C20.843,18.7209 21.243,17.5539 20.392,17.2089 C19.934,17.0229 19.614,16.7979 19.487,16.1679 C19.325,15.9849 19.3,15.8189 19.308,15.6199 C19.497,15.7209 20.076,15.8809 20.351,15.8009 C20.267,15.6829 20.065,15.5109 20.033,15.3979 C19.726,15.3379 19.034,15.1619 19.121,14.2779 C19.507,14.5419 19.775,14.5539 19.912,14.1069 C19.953,12.8229 19.728,11.2609 20.458,10.1879 Z M48.0006,31.3831 C48.7436,31.3831 49.3266,31.9601 49.3266,32.6981 C49.3266,33.4361 48.7436,34.0141 48.0006,34.0141 C47.2616,34.0141 46.6816,33.4361 46.6816,32.6981 C46.6816,31.9601 47.2616,31.3831 48.0006,31.3831 Z M48.0006,31.6121 C47.3956,31.6121 46.9416,32.0781 46.9416,32.6981 C46.9416,33.3181 47.3956,33.7841 48.0006,33.7841 C48.6116,33.7841 49.0736,33.3181 49.0736,32.6981 C49.0736,32.0781 48.6116,31.6121 48.0006,31.6121 Z M48.0882,32.0788 C48.3222,32.0788 48.4722,32.2158 48.4722,32.4298 C48.4722,32.5598 48.3942,32.6768 48.2582,32.7508 L48.2582,32.7508 L48.2422,32.7588 L48.5682,33.3048 L48.3012,33.3048 L48.0092,32.8028 L47.7822,32.8028 L47.7822,33.3048 L47.5352,33.3048 L47.5352,32.0788 Z M48.0412,32.2538 L47.7822,32.2538 L47.7822,32.6268 L48.0282,32.6268 C48.1692,32.6268 48.2332,32.5338 48.2332,32.4438 C48.2332,32.3288 48.1572,32.2538 48.0412,32.2538 L48.0412,32.2538 Z M196.1298,19.3532 C199.5728,19.3532 202.2268,21.9182 202.2268,25.5632 C202.2268,29.1412 199.5728,31.7512 196.1298,31.7512 C192.7098,31.7512 190.0318,29.1862 190.0318,25.5632 C190.0318,21.9402 192.7098,19.3532 196.1298,19.3532 Z M125.3431,19.5551 L125.3431,26.6881 C125.3431,28.1741 126.2201,28.9841 127.4801,28.9841 C128.2681,28.9841 129.1231,28.6911 129.9101,27.9711 L129.9101,19.5551 L133.1511,19.5551 L133.1511,31.4811 L129.9781,31.4811 L129.9561,30.2661 C129.0331,31.2111 127.7731,31.7281 126.3561,31.7281 C123.6561,31.7281 122.1031,29.8611 122.1031,27.4081 L122.1031,19.5551 L125.3431,19.5551 Z M119.1957,15.7298 L119.1957,25.7878 C119.1957,29.4778 116.8107,31.7288 112.9177,31.7288 C109.5647,31.7288 107.2477,29.6588 106.9547,26.4858 L110.0827,26.0138 C110.2847,27.9258 111.4777,28.8478 112.9177,28.8478 C114.6057,28.8478 115.7527,27.7458 115.7527,25.7658 L115.7527,15.7298 L119.1957,15.7298 Z M175.692,15.4828 C179.089,15.4828 181.429,17.1248 182.712,20.0278 L179.675,21.2208 C178.887,19.5108 177.559,18.5878 175.737,18.5878 C173.262,18.5878 171.282,20.5678 171.282,23.6058 C171.282,26.5978 173.216,28.6008 175.759,28.6238 C177.582,28.6238 178.932,27.7458 179.719,26.0358 L182.667,27.1838 C181.362,30.0408 179.044,31.7288 175.669,31.7288 C171.349,31.7288 167.794,28.5108 167.794,23.6058 C167.794,18.6998 171.349,15.4828 175.692,15.4828 Z M207.7883,19.5551 L207.7883,26.6881 C207.7883,28.1741 208.6663,28.9841 209.9263,28.9841 C210.7143,28.9841 211.5693,28.6911 212.3563,27.9711 L212.3563,19.5551 L215.5973,19.5551 L215.5973,31.4811 L212.4243,31.4811 L212.4023,30.2661 C211.4793,31.2111 210.2193,31.7281 208.8023,31.7281 C206.1023,31.7281 204.5483,29.8611 204.5483,27.4081 L204.5483,19.5551 L207.7883,19.5551 Z M80.5512,15.5051 C83.2072,15.5051 85.2092,16.4501 86.6272,17.8671 L84.4672,20.0281 C83.2972,18.8131 81.9022,18.1831 80.6192,18.1831 C79.0442,18.1831 78.1662,18.8801 78.1662,19.8481 C78.1662,20.7701 78.7962,21.3101 80.1912,21.7161 L82.5542,22.3911 C85.8392,23.3361 86.8522,24.7531 86.8522,26.7781 C86.8522,29.5241 84.3772,31.7061 80.6192,31.7061 C77.9412,31.7061 75.7582,30.8741 74.1612,29.4561 L76.2312,27.2281 C77.4912,28.3541 78.9542,29.0741 80.6192,29.0741 C82.3292,29.0741 83.3642,28.2641 83.3642,27.1611 C83.3642,26.3731 82.9592,25.7211 81.3172,25.2711 L78.7742,24.5731 C75.8262,23.7631 74.7242,22.2551 74.7242,20.1631 C74.7242,17.5301 76.8612,15.5051 80.5512,15.5051 Z M155.5025,19.3752 C159.2155,19.3752 161.1735,22.1652 161.1735,25.5182 C161.1735,25.8332 161.1505,26.0812 161.1275,26.4182 L152.8245,26.4182 C153.1405,28.1282 154.3105,29.2312 155.9525,29.2312 C157.1235,29.2312 158.0235,28.7582 158.6975,27.8362 L160.9035,29.1412 C159.8455,30.6942 158.0905,31.7062 155.8175,31.7062 C152.5325,31.7062 149.6975,29.2542 149.6975,25.4962 C149.6975,21.8952 152.2845,19.3752 155.5025,19.3752 Z M147.3984,15.1001 L147.3984,31.4811 L144.2704,31.4811 L144.2484,30.3111 C143.3484,31.2111 142.2224,31.6841 140.8724,31.6841 C137.8124,31.6841 135.4504,29.2311 135.4504,25.5181 C135.4504,21.9631 137.9024,19.3981 141.0524,19.3751 C142.2684,19.3751 143.3034,19.7131 144.1584,20.3881 L144.1584,15.1001 L147.3984,15.1001 Z M229.8447,15.1001 L229.8447,31.4811 L226.7167,31.4811 L226.6947,30.3111 C225.7947,31.2111 224.6697,31.6841 223.3197,31.6841 C220.2597,31.6841 217.8967,29.2311 217.8967,25.5181 C217.8967,21.9631 220.3497,19.3981 223.4997,19.3751 C224.7147,19.3751 225.7497,19.7131 226.6047,20.3881 L226.6047,15.1001 L229.8447,15.1001 Z M93.471,16.2472 L93.471,19.5552 L97.161,19.5552 L97.161,22.1202 L93.471,22.1202 L93.471,27.2062 C93.471,28.3982 94.169,28.8942 95.159,28.8942 C95.767,28.8942 96.261,28.8042 96.869,28.5112 L97.612,30.9862 C96.734,31.3912 95.631,31.6612 94.394,31.6612 C91.784,31.6612 90.254,30.4242 90.254,27.8362 L90.254,22.1202 L88.071,22.1202 L88.071,19.5552 L90.254,19.5552 L90.254,16.2472 L93.471,16.2472 Z M100.6747,27.9941 C101.6647,27.9941 102.4977,28.8041 102.4977,29.8161 C102.4977,30.8061 101.6647,31.6161 100.6747,31.6161 C99.6617,31.6161 98.8517,30.8061 98.8517,29.8161 C98.8517,28.8041 99.6617,27.9941 100.6747,27.9941 Z M187.7575,15.1 L187.7575,31.481 L184.5175,31.481 L184.5175,15.1 L187.7575,15.1 Z M27.572,26.7029 C27.241,26.0509 26.272,26.1859 25.855,26.2429 L25.855,26.2429 L25.796,26.2519 C23.76,26.6279 22.472,27.4559 21.973,28.7129 C21.973,28.7129 21.87,28.9429 22.151,29.1629 C22.516,29.4499 22.662,29.3099 22.662,29.3099 C23.959,27.8719 25.572,27.1139 27.458,27.0529 C27.458,27.0529 27.566,27.0449 27.605,26.9369 C27.643,26.8289 27.572,26.7029 27.572,26.7029 Z M196.1068,22.0982 C194.3738,22.0982 193.1368,23.4702 193.1368,25.5632 C193.1368,27.6332 194.3738,29.0062 196.1068,29.0062 C197.8618,29.0062 199.0998,27.6332 199.0998,25.5632 C199.0998,23.4702 197.8618,22.0982 196.1068,22.0982 Z M141.6154,22.0751 C139.8154,22.0751 138.5554,23.5161 138.5554,25.5181 C138.5554,27.5211 139.8154,28.9841 141.6154,28.9841 C142.6284,28.9841 143.4604,28.6011 144.1354,27.8361 L144.1354,23.2461 C143.4604,22.4801 142.6054,22.0751 141.6154,22.0751 Z M224.0627,22.0751 C222.2617,22.0751 221.0017,23.5161 221.0017,25.5181 C221.0017,27.5211 222.2617,28.9841 224.0627,28.9841 C225.0747,28.9841 225.9067,28.6011 226.5827,27.8361 L226.5827,23.2461 C225.9067,22.4801 225.0527,22.0751 224.0627,22.0751 Z M155.4805,21.8052 C154.1525,21.8052 153.0945,22.7952 152.8475,24.3702 L158.0905,24.3702 C157.9555,22.8852 156.9655,21.8052 155.4805,21.8052 Z"
            fill="#000000"
          ></path>
        </g>
      </g>
    </g>
  </g>
</svg>
