<svg
  enable-background="new 0 0 512 512"
  width="27"
  height="27"
  viewBox="0 0 512 512"
  xmlns="http://www.w3.org/2000/svg"
>
  <g fill="#FFFFFF">
    <g>
      <path
        d="m504.67 60.439-123-34.076c-1.747-.483-3.593-.483-5.34 0l-120.33 33.337-120.33-33.337c-1.747-.483-3.592-.483-5.34 0l-123 34.076c-4.331 1.2-7.33 5.142-7.33 9.637v405.924c0 3.124 1.459 6.068 3.946 7.959 2.486 1.891 5.712 2.511 8.724 1.678l120.33-33.336 120.33 33.336c1.747.483 3.593.483 5.34 0l120.33-33.336 120.33 33.336c.879.244 1.777.363 2.669.363 2.163 0 4.294-.702 6.055-2.041 2.486-1.891 3.946-4.836 3.946-7.959v-405.924c0-4.495-2.999-8.437-7.33-9.637zm-104.457 120.195 14.142 14.142-14.142 14.142-14.142-14.142c-3.906-3.904-10.237-3.904-14.142 0l-14.143 14.142-14.142-14.142 14.142-14.142c3.905-3.905 3.905-10.237 0-14.142l-14.142-14.143 14.142-14.143 14.142 14.143c3.905 3.905 10.237 3.905 14.143 0l14.142-14.142 14.142 14.142-14.142 14.143c-3.905 3.904-3.905 10.236 0 14.142zm-134.213 186.448c3.369-1.608 5.703-5.037 5.703-9.019s-2.333-7.411-5.703-9.019v-271.362l103-28.535v71.988l-4.142-4.142c-1.875-1.875-4.419-2.929-7.071-2.929s-5.196 1.054-7.071 2.929l-28.284 28.285c-3.905 3.905-3.905 10.236 0 14.142l14.142 14.143-14.142 14.142c-3.905 3.905-3.905 10.237 0 14.143l28.284 28.284c3.906 3.905 10.238 3.905 14.142 0l4.143-4.142v208.329l-103 28.535v-95.772zm-246-289.4 103-28.535v36.367c0 5.523 4.477 10 10 10s10-4.477 10-10v-36.367l103 28.535v85.88h-19.536c-5.523 0-10 4.477-10 10s4.477 10 10 10h19.536v73.129c-1.249-.56-2.629-.879-4.086-.879h-20c-5.523 0-10 4.477-10 10s4.477 10 10 10h20c1.457 0 2.838-.319 4.086-.879v73.129h-4.297c-5.523 0-10 4.477-10 10s4.477 10 10 10h4.297v94.79l-103-28.535v-66.349c4.908-.638 8.701-4.825 8.701-9.906s-3.793-9.268-8.701-9.906v-172.642c0-5.523-4.477-10-10-10s-10 4.477-10 10v172.548h-1.299c-5.523 0-10 4.477-10 10s4.477 10 10 10h1.299v66.255l-103 28.536zm472 385.171-103-28.535v-208.329l4.142 4.142c1.953 1.953 4.512 2.929 7.071 2.929s5.119-.976 7.071-2.929l28.284-28.284c3.905-3.905 3.905-10.237 0-14.143l-14.142-14.142 14.142-14.143c3.905-3.905 3.905-10.236 0-14.142l-28.284-28.285c-1.875-1.875-4.419-2.929-7.071-2.929s-5.196 1.054-7.071 2.929l-4.142 4.143v-71.988l103 28.535z"
      />
      <path
        d="m70.9 273.962c-17.92 0-32.5 14.58-32.5 32.5 0 14.653 9.749 27.067 23.1 31.109v20.491c0 5.523 4.477 10 10 10s10-4.477 10-10v-20.885c12.73-4.406 21.9-16.506 21.9-30.716 0-17.919-14.579-32.499-32.5-32.499zm0 45c-6.893 0-12.5-5.607-12.5-12.5s5.607-12.5 12.5-12.5 12.5 5.607 12.5 12.5-5.607 12.5-12.5 12.5z"
      />
      <path
        d="m301.761 277.513c4.37 0 8.385-2.888 9.623-7.302 1.492-5.317-1.61-10.837-6.928-12.329-4.896-1.373-9.97-2.069-15.081-2.069h-7.461c-5.523 0-10 4.477-10 10s4.477 10 10 10h7.461c3.285 0 6.542.446 9.679 1.326.904.253 1.813.374 2.707.374z"
      />
      <path
        d="m286.465 183.562h11.348c5.523 0 10-4.477 10-10s-4.477-10-10-10h-11.348c-5.523 0-10 4.477-10 10s4.477 10 10 10z"
      />
      <path
        d="m327.049 283.594c-5.01 2.323-7.188 8.269-4.865 13.279 2.201 4.746 3.317 9.814 3.317 15.064v.106c0 5.523 4.477 10 10 10s10-4.477 10-10v-.106c0-8.178-1.74-16.077-5.172-23.479-2.325-5.009-8.27-7.188-13.28-4.864z"
      />
      <path
        d="m312.631 339.512c-3.996 3.38-8.746 5.894-13.736 7.269-5.324 1.467-8.452 6.972-6.985 12.297 1.222 4.436 5.247 7.347 9.635 7.347.879 0 1.773-.117 2.662-.361 7.768-2.14 15.147-6.041 21.342-11.282 4.216-3.567 4.743-9.877 1.175-14.093s-9.876-4.744-14.093-1.177z"
      />
      <path
        d="m171.131 207.129c1.489.786 3.086 1.159 4.66 1.159 3.589 0 7.06-1.938 8.852-5.333 2.43-4.602 5.905-8.721 10.05-11.91 4.377-3.368 5.196-9.646 1.828-14.023-3.369-4.377-9.647-5.195-14.023-1.828-6.406 4.928-11.78 11.299-15.542 18.423-2.578 4.883-.709 10.933 4.175 13.512z"
      />
      <path
        d="m178.291 260.605c1.93 1.809 4.387 2.705 6.838 2.705 2.667 0 5.329-1.061 7.297-3.16 3.777-4.029 3.574-10.357-.455-14.135-3.82-3.581-6.873-8.014-8.831-12.818-2.084-5.115-7.919-7.571-13.035-5.487-5.114 2.084-7.571 7.92-5.487 13.035 3.038 7.454 7.766 14.322 13.673 19.86z"
      />
      <path
        d="m171.702 358.062c0 5.523 4.477 10 10 10h20c5.523 0 10-4.477 10-10s-4.477-10-10-10h-20c-5.523 0-10 4.477-10 10z"
      />
      <path
        d="m133.008 140.514c5.523 0 10-4.477 10-10s-4.477-10-10-10h-.008c-5.523 0-9.996 4.477-9.996 10s4.481 10 10.004 10z"
      />
    </g>
  </g>
</svg>
