<svg width="96" height="96" viewBox="0 0 96 96" fill="none" xmlns="http://www.w3.org/2000/svg">
<rect width="96" height="96" rx="48" fill="#E03400"/>
<path opacity="0.6" fill-rule="evenodd" clip-rule="evenodd" d="M48.8746 53.5262C47.271 53.5202 45.9759 52.2153 45.9819 50.6117L46.0125 42.4126C46.0185 40.8089 47.3233 39.5138 48.9269 39.5198C50.5305 39.5258 51.8257 40.8306 51.8197 42.4342L51.7891 50.6334C51.7831 52.237 50.4782 53.5322 48.8746 53.5262Z" fill="white"/>
<path fill-rule="evenodd" clip-rule="evenodd" d="M77.5787 53.6343C75.9751 53.6283 74.68 52.3235 74.686 50.7199L74.7166 42.5207C74.7226 40.9171 76.0274 39.622 77.631 39.628C79.2346 39.6339 80.5298 40.9388 80.5238 42.5424L80.4932 50.7416C80.4872 52.3452 79.1823 53.6403 77.5787 53.6343Z" fill="white" fill-opacity="0.6"/>
<path fill-rule="evenodd" clip-rule="evenodd" d="M20.1793 53.418C18.5757 53.412 17.2806 52.1072 17.2865 50.5036L17.3172 42.3044C17.3232 40.7008 18.628 39.4057 20.2316 39.4116C21.8352 39.4176 23.1304 40.7225 23.1244 42.3261L23.0937 50.5253C23.0878 52.1289 21.7829 53.424 20.1793 53.418Z" fill="white" fill-opacity="0.6"/>
<path fill-rule="evenodd" clip-rule="evenodd" d="M16.2965 32.7887C16.3694 31.1867 17.7272 29.9472 19.3292 30.0202C21.6726 30.127 23.9498 30.8308 25.9447 32.0649C27.9397 33.299 29.5861 35.0224 30.7279 37.0716C31.5084 38.4725 31.0055 40.2408 29.6046 41.0213C28.2038 41.8018 26.4354 41.299 25.6549 39.8981C24.9948 38.7134 24.043 37.717 22.8896 37.0035C21.7363 36.2901 20.4197 35.8832 19.0649 35.8214C17.463 35.7485 16.2235 34.3907 16.2965 32.7887Z" fill="white"/>
<path fill-rule="evenodd" clip-rule="evenodd" d="M71.8681 60.9772C69.8732 59.7431 68.2267 58.0197 67.085 55.9705C66.3045 54.5696 66.8073 52.8012 68.2082 52.0207C69.6091 51.2402 71.3774 51.7431 72.1579 53.144C72.818 54.3287 73.7699 55.325 74.9232 56.0385C76.0766 56.752 77.3931 57.1589 78.7479 57.2206C80.3499 57.2936 81.5894 58.6514 81.5164 60.2534C81.4434 61.8553 80.0856 63.0948 78.4837 63.0218C76.1403 62.9151 73.8631 62.2113 71.8681 60.9772Z" fill="white"/>
<path fill-rule="evenodd" clip-rule="evenodd" d="M41.1683 57.7886C42.0119 56.4249 43.8014 56.0032 45.1652 56.8469V56.8469C47.3594 58.2043 50.26 58.1509 52.4745 56.8268C52.4988 56.8123 52.5231 56.7976 52.5473 56.7829C53.7285 56.0608 54.7197 55.0666 55.4381 53.8832L55.5055 53.7722L55.5825 53.6676C58.3993 49.8446 60.1498 47.0989 61.7032 44.6622C62.0149 44.1733 62.3186 43.6969 62.6215 43.2266C64.4574 40.3759 66.2226 37.8182 69.3373 34.4185C71.3458 32.1412 73.9875 30.5137 76.9254 29.744C78.4766 29.3376 80.0636 30.2657 80.47 31.817C80.8764 33.3683 79.9483 34.9553 78.3971 35.3617C76.5691 35.8406 74.9262 36.8551 73.6792 38.2749L73.6587 38.2983L73.6377 38.3212C70.8085 41.4068 69.2385 43.6775 67.5038 46.371C67.2147 46.8198 66.9202 47.2819 66.6143 47.7618C65.0679 50.1882 63.2296 53.0725 60.3308 57.0131C59.1375 58.9376 57.5092 60.5561 55.576 61.7377C53.604 62.9431 51.3722 63.6591 49.067 63.8257L48.8964 63.838L48.7256 63.8302C46.3822 63.7234 44.105 63.0196 42.11 61.7855C40.7463 60.9419 40.3246 59.1524 41.1683 57.7886Z" fill="white"/>
<path fill-rule="evenodd" clip-rule="evenodd" d="M17.3459 61.2219C16.9394 59.6706 17.8675 58.0836 19.4188 57.6772C21.2468 57.1983 22.8897 56.1838 24.1367 54.7639L24.1572 54.7406L24.1782 54.7176C27.0074 51.632 28.5774 49.3614 30.3121 46.6678C30.6012 46.2191 30.8957 45.757 31.2016 45.277C32.748 42.8506 34.5863 39.9663 37.4851 36.0257C38.6784 34.1012 40.3068 32.4828 42.2399 31.3011C44.2119 30.0957 46.4437 29.3798 48.7489 29.2132L48.9195 29.2009L49.0904 29.2086C51.4337 29.3154 53.7109 30.0192 55.7059 31.2533C57.7008 32.4874 59.3473 34.2108 60.489 36.26C61.2696 37.6609 60.7667 39.4292 59.3658 40.2098C57.9649 40.9903 56.1966 40.4874 55.4161 39.0865C54.756 37.9018 53.8041 36.9054 52.6508 36.192V36.192C50.4565 34.8345 47.556 34.8879 45.3414 36.212C45.3171 36.2265 45.2928 36.2412 45.2687 36.256C44.0874 36.978 43.0962 37.9723 42.3778 39.1557L42.3104 39.2667L42.2334 39.3712C39.4166 43.1942 37.6661 45.9399 36.1127 48.3767C35.801 48.8656 35.4973 49.342 35.1944 49.8122C33.3585 52.6629 31.5933 55.2207 28.4786 58.6203C26.4701 60.8977 23.8284 62.5252 20.8905 63.2948C19.3393 63.7012 17.7523 62.7731 17.3459 61.2219Z" fill="white"/>
</svg>
